<svg width="1299" height="600" viewBox="0 0 1299 600" fill="none" xmlns="http://www.w3.org/2000/svg">
<circle cx="233.154" cy="233.155" r="199.846" fill="#FF005A"/>
<path d="M205.636 128.765C206.801 129.955 207.932 131.172 209.031 132.414C216.604 122.683 228.437 116.336 241.865 116.336C264.756 116.336 283.34 134.822 283.113 157.367C283.113 179.912 264.756 198.398 241.865 198.398L41.031 198.398C41.031 198.398 41.031 198.398 41.031 198.398L33.5157 198.397C14.9172 198.397 0.00166652 183.608 0.00166652 165.572C-0.182476 147.537 14.9172 132.747 33.5157 132.747C43.1012 132.747 51.6863 136.667 57.803 142.898C61.1634 137.868 64.9965 133.133 69.2727 128.765C87.3556 110.298 111.881 99.9229 137.454 99.9229C163.027 99.9229 187.553 110.298 205.636 128.765Z" fill="#F9C1CB"/>
<path d="M1121.6 63.5975C1122.76 64.787 1123.89 66.0038 1124.99 67.2464C1132.57 57.5148 1144.4 51.1679 1157.83 51.1679C1180.72 51.1679 1199.3 69.6545 1199.07 92.1991C1199.07 114.744 1180.72 133.23 1157.83 133.23L956.993 133.23C956.993 133.23 956.993 133.23 956.993 133.23L949.477 133.229C930.879 133.229 915.963 118.44 915.963 100.404C915.779 82.3686 930.879 67.5794 949.477 67.5794C959.063 67.5794 967.648 71.4987 973.765 77.7302C977.125 72.6999 980.958 67.9647 985.234 63.5975C1003.32 45.1299 1027.84 34.7549 1053.42 34.7549C1078.99 34.7549 1103.51 45.1299 1121.6 63.5975Z" fill="white"/>
<path d="M932.615 33.3077L799.385 0V99.9231H699.461V133.231H599.538V33.3077H466.308V233.154H399.692V199.846H299.769V366.385H166.538V599.538H1299V499.615H1199.08V433H1132.46V166.538H999.231V233.154H932.615V33.3077Z" fill="#BEDCFB"/>
<path d="M999.231 599.538C999.231 546.535 978.176 495.703 940.697 458.225C903.219 420.747 852.387 399.691 799.385 399.691C746.382 399.691 695.551 420.747 658.072 458.225C620.594 495.703 599.539 546.535 599.539 599.538L799.385 599.538H999.231Z" fill="#95BEF0"/>
<path d="M766.077 599.539C766.077 520.035 732.74 443.788 673.399 387.57C614.058 331.352 533.574 299.77 449.654 299.77C365.733 299.77 285.25 331.352 225.909 387.57C166.568 443.788 133.231 520.035 133.231 599.539L449.654 599.539H766.077Z" fill="white"/>
<path d="M392.756 519.709L368.241 426.464C357.354 385.097 305.551 371.393 274.995 401.949C244.44 432.505 257.991 484.308 299.51 495.195L392.756 519.709Z" fill="#CEDC00"/>
<path d="M238.707 406.052C245.526 403.227 252.835 401.773 260.216 401.773C267.598 401.773 274.906 403.227 281.726 406.052C287.253 408.341 292.37 411.495 296.89 415.386L297.06 415.216L352.996 471.153L344.164 479.985L316.095 451.916C316.313 453.926 316.423 455.95 316.423 457.98V470.471H303.933V457.98C303.933 452.239 302.802 446.555 300.605 441.251C298.408 435.947 295.188 431.127 291.129 427.068C287.069 423.009 282.25 419.788 276.946 417.592C271.642 415.395 265.957 414.264 260.216 414.264C254.476 414.264 248.791 415.395 243.487 417.592C238.183 419.788 233.364 423.009 229.304 427.068C225.245 431.127 222.025 435.947 219.828 441.251C217.631 446.555 216.5 452.239 216.5 457.98V575.231C217.9 575.538 219.275 575.948 220.611 576.459C223.895 577.714 226.878 579.554 229.391 581.874C231.904 584.193 233.897 586.947 235.257 589.978C236.617 593.009 237.317 596.257 237.317 599.538H183.192C183.192 596.257 183.892 593.009 185.252 589.978C186.612 586.947 188.606 584.193 191.119 581.874C193.632 579.554 196.615 577.714 199.899 576.459C201.234 575.948 202.609 575.538 204.01 575.231V457.98C204.01 450.599 205.464 443.29 208.288 436.471C211.113 429.651 215.253 423.455 220.472 418.236C225.692 413.017 231.888 408.877 238.707 406.052Z" fill="#06999A"/>
</svg>
