<svg width="249" height="263" viewBox="0 0 249 263" fill="none" xmlns="http://www.w3.org/2000/svg">
<path d="M122.683 85.4058C121.792 79.975 119.316 74.56 118.337 72.5679C118.091 72.0699 117.541 71.8011 117 71.9197C112.583 72.892 106.828 77.564 103.071 77.058C102.084 76.9236 101.184 76.307 100.699 75.4454C100.237 74.6233 100.157 73.6509 99.9742 72.7181C99.8548 72.1173 99.6797 71.4849 99.3374 70.979C98.9554 70.4098 98.5335 70.1094 97.833 69.6588C96.7983 68.9948 96.5038 67.7932 97.1406 66.9237C96.7266 66.8763 96.3048 66.8288 95.9148 66.6628C95.5327 66.4968 95.1745 66.2043 95.0471 65.8091C94.88 65.2952 95.1108 64.7419 95.2143 64.2043C95.3735 63.3901 95.5486 62.481 94.9834 61.8644C94.4501 61.2794 93.6144 61.0739 92.8184 61.0107C92.0224 60.9474 91.2185 61.0028 90.4464 60.8288C89.6743 60.6549 88.9022 60.1806 88.6554 59.4296C88.4326 58.7419 88.6952 58.0146 88.9261 57.3269C89.6345 55.2162 90.8842 50.149 89.9768 47.6906C89.6584 46.821 89.0057 45.5799 88.6077 44.7103C87.2943 41.8645 86.9043 37.4455 87.7639 33.0661L124.307 20.576L158.415 77.896L122.683 85.4058Z" fill="#FFDC9B"/>
<path d="M91.1866 48.6857C91.1945 49.0257 91.1945 49.3814 91.091 49.7055C90.9637 50.085 90.8523 50.2352 90.5179 50.5277C90.6612 50.5514 90.8443 50.5751 90.9478 50.6858C91.0751 50.8202 91.107 51.0257 91.2502 51.1601C91.4333 51.3262 91.6084 51.2629 91.8154 51.2787C92.0462 51.3024 92.1656 51.5396 92.3407 51.6582C92.5318 51.7926 92.7944 51.8163 93.0173 51.7372C93.2402 51.6661 93.4312 51.508 93.5824 51.3262C93.8292 51.0337 94.0202 50.5593 94.0202 50.1561L91.1866 48.6857Z" fill="#8264E6"/>
<path d="M95.4127 59.8557C95.4605 59.9506 95.5082 60.0454 95.5719 60.1403C95.5241 60.0375 95.4684 59.9427 95.4127 59.8557Z" fill="#D7F0FF"/>
<path d="M91.6007 49.4449C93.8692 51.1762 95.294 49.9904 95.6124 49.0022C95.9069 48.101 95.7955 47.0496 94.9358 46.3381C94.2353 45.761 93.0653 45.5238 92.2056 45.2313C90.2873 44.5831 88.7749 43.4052 87.7242 41.8162C87.9392 42.8913 88.2416 43.8874 88.6317 44.7254C88.8545 45.2076 89.149 45.8005 89.4197 46.3776C89.4276 46.3855 89.4276 46.3934 89.4356 46.4013C89.9769 47.516 90.6534 48.7176 91.6007 49.4449Z" fill="#D7F0FF"/>
<path d="M103.078 75.2163C102.672 73.7143 102.441 71.7537 102.401 70.1964C102.33 67.2792 102.449 64.3147 101.749 61.4845C101.574 60.7888 101.351 60.0932 100.969 59.4765C99.4881 57.0733 96.0973 56.4804 94.6327 54.0613C94.6406 54.5909 94.6406 55.1206 94.6486 55.6503C94.6645 57.0733 94.7282 58.6069 95.3968 59.856C95.4605 59.943 95.5162 60.0378 95.556 60.1406C95.5003 60.0457 95.4525 59.9509 95.3968 59.856C95.0625 59.3817 94.4257 59.1287 93.8208 59.1129C93.1044 59.0971 92.4119 59.3263 91.7115 59.4765C91.0587 59.6188 90.3822 59.6979 89.7295 59.5635C89.3076 59.4765 88.9016 59.2789 88.5833 58.9943C88.5912 59.1445 88.6071 59.2947 88.6549 59.437C88.8937 60.188 89.6737 60.6624 90.4458 60.8363C91.2179 61.0102 92.0298 60.9549 92.8179 61.0181C93.6138 61.0813 94.3461 61.2869 94.8396 61.9035C95.2695 62.4332 95.2933 63.1051 95.1421 64.0064C95.0546 64.5439 94.8635 65.295 95.0307 65.8167C95.158 66.212 95.5083 66.5045 95.8983 66.6705C96.2883 66.8365 96.7102 66.884 97.1241 66.9314C96.4873 67.7931 96.7739 69.0026 97.8166 69.6667C98.525 70.1173 98.9469 70.4177 99.321 70.9869C99.6633 71.4929 99.8384 72.1253 99.9578 72.7261C100.133 73.6511 100.212 74.6313 100.682 75.4535C101.168 76.3152 102.075 76.9318 103.054 77.0662C103.46 77.1216 103.898 77.1057 104.344 77.0504C103.723 76.6393 103.301 76.0622 103.078 75.2163Z" fill="#D7F0FF"/>
<path d="M16.6436 101.816C18.4983 104.133 20.5837 106.433 23.3696 107.469C24.094 107.738 24.8979 107.919 25.6461 107.73C26.4023 107.548 28.2888 107.761 28.3206 106.995C28.3445 106.489 26.8958 105.168 26.6491 104.726C25.4153 102.496 24.086 100.322 22.6533 98.2115C21.5946 96.6462 19.8992 93.1283 18.0844 92.3931C16.3093 91.6737 14.8527 93.7054 14.4945 95.1916C13.8975 97.6739 15.1472 99.9507 16.6436 101.816Z" fill="#F9AC85"/>
<path d="M99.4806 106.607C101.94 106.362 102.736 103.714 100.587 102.497C97.5942 100.805 94.1396 99.0577 91.5209 98.1486L66.8296 89.5316C65.6197 89.0414 64.6248 88.1402 64.0119 86.9939C62.9134 84.9385 60.3663 84.1242 58.2808 85.1836C52.5737 88.0691 43.0538 93.6503 48.8326 96.1643C54.1577 98.4885 57.7634 98.7889 59.5783 98.7415C60.5971 98.7098 61.608 98.9944 62.4836 99.5241C62.4836 99.5241 63.3432 100.157 64.8078 101.2C79.7802 107.817 92.1576 107.343 99.4806 106.607Z" fill="#FFDC9B"/>
<path d="M114.748 106.029L91.5212 98.148C94.14 99.065 97.2364 100.717 100.221 102.425C102.203 103.563 101.773 105.776 99.5845 105.99C92.2615 106.717 79.7806 107.808 64.8082 101.191C72.0675 106.369 94.4027 120.061 106.008 123.674C115.249 126.543 114.748 106.029 114.748 106.029Z" fill="#F9AC85"/>
<path d="M47.3682 78.0928C47.3682 78.0928 44.9564 76.7568 43.0699 75.9742C39.3766 74.4405 35.8504 74.8437 36.0096 75.3813C36.1608 75.8714 55.1767 91.7298 55.1767 91.7298L56.6493 82.1563L47.3682 78.0928Z" fill="#F9AC85"/>
<path d="M9.6784 222.408C9.6784 222.408 3.66081 224.234 4.00308 229.001C4.93437 242.092 66.9888 251.404 120.805 243.12C181.832 233.728 182.955 212.393 183.767 206.511C184.563 200.733 183.432 186.037 165.571 184.029L9.6784 222.408Z" fill="#50287D"/>
<path d="M70.2203 179.112L50.7029 182.274C40.793 183.989 29.1558 187.626 19.3732 194.906L6.55 204.456C1.63086 208.124 -0.263569 214.574 1.90149 220.298C3.58896 224.748 7.45742 228.021 12.1537 228.946C25.2714 231.531 53.5764 236.353 82.3271 236.377C91.1704 236.384 105.912 235.333 114.413 234.234L103.317 178.321L70.2203 179.112Z" fill="#A08CFF"/>
<path d="M104.909 184.82C104.909 184.82 64.9991 193.682 51.1172 196.219C46.9542 196.978 41.271 197.587 37.0602 197.239C32.5948 196.868 26.6329 197.16 21.085 199.279L31.1222 190.891C36.7976 185.855 46.0627 183.081 52.4385 181.982L70.2286 179.12L103.325 178.321L104.909 184.82Z" fill="#8264E6"/>
<path d="M67.5941 165.887L70.6188 134.219C71.2238 127.104 78.5945 122.765 84.9464 125.097C94.4265 128.583 108.3 135.002 125.708 147.642L87.9711 176.1L67.5941 165.887Z" fill="#A08CFF"/>
<path d="M62.0775 98.5432C62.0775 99.0254 61.8149 99.8475 61.3851 100.338L43.6427 120.069C42.7035 121.12 41.1513 121.065 40.1245 119.934L1.41612 77.484C0.882811 76.899 0.604219 76.0295 0.508702 75.2152C0.413185 74.3931 0.739534 72.7884 2.10862 71.5394C3.15135 70.5907 60.7562 94.8673 61.0348 95.3574C61.7751 96.725 62.0775 97.8555 62.0775 98.5432Z" fill="#A08CFF"/>
<path d="M2.22002 75.8398L40.2916 117.618C41.3184 118.749 42.8706 118.804 43.8098 117.753L60.6846 98.8437C61.6795 97.7291 61.5999 95.7923 60.5094 94.5986L25.5342 56.2272C24.6268 55.2312 23.2895 55.0494 22.3264 55.8004L2.35533 71.3023C1.06585 72.3062 1.00217 74.5038 2.22002 75.8398Z" fill="#50287D"/>
<path d="M57.0072 94.9781L57.3177 94.6382L25.8527 59.8557L5.49951 76.322L5.79402 76.6462L25.789 60.4644L57.0072 94.9781Z" fill="#321450"/>
<path d="M57.007 94.978L25.7888 60.4644L5.79382 76.6461L39.4478 113.832L57.007 94.978Z" fill="#B4C8FF"/>
<path d="M39.4477 113.832L27.5797 100.717L29.2035 96.148C29.4423 95.4839 29.4582 94.725 29.2513 94.0057C29.0363 93.2389 29.0682 92.4326 29.3468 91.7369L31.3526 86.7725L37.7921 80.6619L39.5592 80.5117L39.7024 80.314C40.2756 79.5077 41.0954 78.9939 42.0108 78.8674L42.3849 78.8121L57.007 94.978L39.4477 113.832Z" fill="white"/>
<path d="M48.3072 104.315L53.2263 99.0262L40.3076 84.2983L41.6528 87.1126L45.1153 95.7217C45.1153 95.7217 39.9733 98.0301 35.6034 95.5082L48.3072 104.315Z" fill="#B4C8FF"/>
<path d="M33.1839 84.3853L27.2698 89.1602L32.181 92.86C35.1659 94.2276 38.3657 94.8047 41.4541 94.5122C39.3129 91.1761 35.2773 86.7965 33.1839 84.3853Z" fill="#FFDC9B"/>
<path d="M40.3076 84.2984L37.7923 80.6619L33.1836 84.3853C35.1497 86.6463 38.8271 90.6386 41.0399 93.8877C41.223 94.1565 41.0877 94.5439 40.8011 94.5597C37.9197 94.7178 34.9507 94.1249 32.1807 92.8521L36.6859 96.2436L41.6448 98.5124C42.791 99.0342 44.0487 98.7812 44.8765 97.8642C45.9033 96.7337 46.0466 94.868 45.2347 93.3739L40.3076 84.2984Z" fill="#F9AC85"/>
<path d="M31.7033 86.3776C31.0665 85.7057 30.3421 85.1602 29.5462 84.7966L28.5671 84.3459C27.7154 83.9507 26.9592 83.2866 26.4021 82.4249C25.8687 81.6027 25.0887 80.5276 24.1813 79.7212C21.7376 77.5393 19.1189 77.3733 17.7816 77.4603L24.9215 85.8638L22.4938 84.8519C21.9127 84.6068 21.2839 84.7254 20.8302 85.1523C20.3367 85.6266 20.1457 86.4093 20.3367 87.1603C20.5596 88.0378 21.1566 88.7493 21.9127 89.0339C23.0271 89.4529 24.7623 89.9746 26.5055 89.9588C27.0548 89.9509 27.596 89.8086 28.0816 89.5556L28.3522 89.4134C28.3522 89.4134 32.2207 91.5162 37.1716 90.9233C38.7079 90.7415 40.0531 89.8007 40.857 88.3382L40.9207 88.2196C40.9525 88.1564 40.9684 88.0852 41.0003 88.0141C36.8453 90.8601 33.2554 88.0141 31.7033 86.3776Z" fill="#FFF0DC"/>
<path d="M40.9766 85.4927C40.3557 84.1725 39.2971 82.1329 37.8245 80.0854C36.8932 78.7968 35.7868 77.69 34.5769 76.7651C34.163 76.4489 33.7889 76.0694 33.4625 75.6425L32.6188 74.5357C31.8069 73.4685 30.8597 72.5436 29.8249 71.7925L25.5903 68.7252L17.153 76.7256L17.7818 77.4687C19.127 77.3738 21.7378 77.5477 24.1814 79.7296C25.0889 80.536 25.8689 81.6032 26.4022 82.4333C26.9594 83.295 27.7076 83.9591 28.5673 84.3543L29.5463 84.805C30.3343 85.1686 31.0666 85.7141 31.7034 86.386C33.2556 88.0225 36.8454 90.8685 41.0164 88.0304C41.3586 87.2557 41.3666 86.3149 40.9766 85.4927Z" fill="#FFF0DC"/>
<path d="M40.9766 85.4927C40.2204 83.88 38.8036 81.1922 36.7738 78.7257C36.1529 77.9667 35.4047 77.3817 34.6406 76.8204C34.2028 76.4963 33.7968 76.101 33.4546 75.6425L32.6108 74.5357C31.7989 73.4685 30.8517 72.5436 29.817 71.7925L25.5903 68.7252L17.153 76.7256L17.7818 77.4687C19.127 77.3738 21.7378 77.5477 24.1814 79.7296C25.0889 80.536 25.8689 81.6032 26.4022 82.4333C26.9594 83.295 27.7076 83.9591 28.5673 84.3543L29.5463 84.805C30.3184 85.1607 31.0348 85.6825 31.6557 86.3386C33.0725 87.8486 36.2962 90.489 40.1169 88.5601C40.9925 88.1174 41.4701 86.9473 41.1119 85.8564C41.08 85.7299 41.0323 85.6034 40.9766 85.4927Z" fill="#FFDC9B"/>
<path d="M40.0928 88.5671C41.0798 88.077 41.5255 86.6777 40.9922 85.5156C40.9922 85.5077 40.9843 85.4998 40.9843 85.4919" fill="#FFDC9B"/>
<path d="M20.4558 85.7062C20.5513 85.5007 20.6787 85.3109 20.8379 85.1528C21.2836 84.718 21.9124 84.6073 22.5015 84.8524L24.9292 85.8643C24.9292 85.8643 25.0168 85.6192 24.8655 85.2002C24.7222 84.7971 23.8626 84.0698 23.8626 84.0698C22.191 82.5835 20.7742 80.7495 19.6837 78.6782L19.031 77.4371C18.7126 76.8283 18.8161 76.0773 19.2698 75.6821L20.607 74.5753C21.3393 73.9429 22.7562 73.6662 23.5442 73.6266C24.2128 73.5871 24.4755 73.516 24.77 73.263C25.1521 72.9468 25.3431 72.4092 25.2794 71.84L25.2476 71.5554C25.2078 71.2313 25.3909 70.9467 25.6695 70.9151C26.4654 70.8202 28.1927 70.8834 30.6682 72.4329L27.9539 69.0336C26.4256 67.1283 24.1253 66.3852 22.1274 67.16C19.9703 67.9979 17.3117 69.4684 15.5844 71.9507C12.2891 76.7019 16.5316 81.793 17.3276 82.7021C18.1236 83.6192 20.4558 85.7062 20.4558 85.7062Z" fill="#7337B4"/>
<path d="M35.8743 76.4405L34.9669 75.2863C34.9191 75.2231 34.8554 75.1756 34.7997 75.1282H34.8156C34.4495 74.6934 34.1709 74.5748 33.8445 74.6223C33.5182 74.6697 32.8575 74.8515 32.8575 74.8515L33.0486 75.0966C32.372 75.4444 31.5044 76.0848 30.8119 77.2864C30.78 77.3338 30.6129 77.6342 30.5094 77.7844C30.3343 78.0453 30.0955 78.2192 29.9124 78.3378C29.8248 78.3932 29.594 78.5038 29.4985 78.5513C28.8697 78.8517 27.3016 79.745 25.9803 81.753C25.8848 81.8953 25.845 82.2273 25.4231 82.4566C25.1047 82.6226 23.075 83.5554 23.075 83.5554L23.9346 84.433L26.3225 83.5792C26.5215 83.508 26.7365 83.5554 26.9116 83.7056L27.6677 84.346C27.9623 84.599 28.3125 84.7017 28.6388 84.6543C28.8617 84.6227 29.0846 84.5199 29.2597 84.346L31.4486 82.2194C31.6954 81.9823 31.7591 81.5791 31.6238 81.2233L31.186 80.1007L31.1621 80.0454C31.1064 79.8873 30.9551 79.4051 31.2178 79.1521C31.3929 78.9861 31.6715 79.0651 31.8546 79.16L33.1361 79.998C33.2794 80.0928 33.4386 80.1245 33.5898 80.1087C33.7092 80.0928 33.8207 80.0375 33.9162 79.9505L35.8186 78.1955C36.0335 77.9979 36.1608 77.6975 36.1688 77.3655C36.1768 77.0334 36.0812 76.7014 35.8743 76.4405ZM31.1621 81.4289C31.2098 81.5475 31.186 81.6818 31.1064 81.753L28.9174 83.8796C28.6548 84.1325 28.2568 84.1404 27.9543 83.8796L26.4977 82.6384C26.426 82.5752 26.3703 82.4803 26.3544 82.3854C26.3385 82.2906 26.3544 82.2036 26.4021 82.1325C27.7792 80.0375 29.7293 79.1126 29.8885 79.0335C30.191 78.8754 30.3263 79.2707 30.3263 79.2707L31.1621 81.4289ZM35.4843 77.7133L33.5819 79.4683C33.5261 79.5236 33.4386 79.5237 33.3669 79.4841C33.3669 79.4841 31.9024 78.5118 31.4805 78.2509C31.0268 77.9663 31.2258 77.6738 31.2258 77.6738C32.0934 76.1243 33.2396 75.6104 33.8684 75.4128C34.1231 75.3337 34.4097 75.4365 34.6007 75.6737L35.5081 76.8279C35.6116 76.9623 35.6673 77.1283 35.6594 77.2943C35.6594 77.4603 35.5877 77.6105 35.4843 77.7133Z" fill="#7337B4"/>
<path d="M31.2658 77.2231C31.2658 77.2231 31.1782 77.7449 31.5046 78.0216C31.5046 78.0216 31.5126 77.4761 31.9822 76.9227C32.4518 76.3693 32.7941 76.3535 32.7941 76.3535C32.7941 76.3535 32.5314 76.0847 32.1095 76.2033C31.6877 76.3219 31.2658 77.2231 31.2658 77.2231Z" fill="#7337B4"/>
<path d="M32.2617 77.8145C32.5134 77.7525 32.6575 77.4618 32.5835 77.1652C32.5095 76.8685 32.2454 76.6783 31.9937 76.7402C31.7419 76.8022 31.5978 77.0929 31.6718 77.3895C31.7459 77.6862 32.0099 77.8764 32.2617 77.8145Z" fill="#7337B4"/>
<path d="M26.7923 81.1363C26.7923 81.1363 26.7047 81.6581 27.0311 81.9348C27.0311 81.9348 27.039 81.3893 27.5087 80.8359C27.9783 80.2825 28.3206 80.2667 28.3206 80.2667C28.3206 80.2667 28.0579 79.9979 27.636 80.1165C27.2142 80.2272 26.7923 81.1363 26.7923 81.1363Z" fill="#7337B4"/>
<path d="M27.9244 81.514C28.1761 81.452 28.3202 81.1614 28.2462 80.8647C28.1722 80.5681 27.9081 80.3778 27.6564 80.4398C27.4046 80.5017 27.2606 80.7924 27.3346 81.0891C27.4086 81.3857 27.6727 81.5759 27.9244 81.514Z" fill="#7337B4"/>
<path d="M30.0713 76.7016C30.0713 76.7016 30.4852 76.9625 30.8036 76.7411C31.114 76.5198 31.5916 75.3893 31.91 75.1679C32.1488 75.0019 32.3 74.994 32.499 74.9545C32.7935 74.8912 32.8413 74.7015 32.8413 74.7015L32.0851 74.409C31.7428 74.2746 31.3767 74.409 31.1936 74.741L30.0713 76.7016Z" fill="#7337B4"/>
<path d="M25.1282 81.5397L25.1998 81.3263C25.5262 80.3381 26.147 79.5396 26.943 79.0495C26.943 79.0495 28.2802 78.2352 28.3678 78.1799C28.4872 78.1008 28.5986 78.1957 28.5509 78.3775C28.5031 78.5514 28.3996 79.0574 28.3996 79.0574C28.3598 79.2392 28.2564 79.3815 28.1131 79.4606C27.5957 79.7372 26.2585 80.5041 25.1282 81.5397Z" fill="#7337B4"/>
<path d="M37.7447 84.9938C37.6412 85.1124 36.5746 86.3219 36.5746 86.3219C36.4234 86.4958 36.4711 86.8121 36.6781 86.9386L37.0602 87.1836C37.3626 87.3734 37.7129 87.318 37.9278 87.0413L38.1904 86.6935C38.3576 86.48 38.3974 86.1638 38.3019 85.8792C38.3019 85.8792 38.0631 85.144 38.0233 85.0333C37.9835 84.9385 37.8482 84.8831 37.7447 84.9938Z" fill="#A08CFF"/>
<path d="M31.9342 82.8991C31.9342 82.8991 32.0218 84.0296 32.4038 85.0731C32.4038 85.0731 32.563 85.0494 32.6665 84.9071C32.77 84.7569 32.7302 84.3537 33.0725 84.1402C33.2874 84.0058 33.4625 83.9821 33.8843 83.9821C34.0913 83.9821 34.6166 83.99 35.1181 83.9979C35.6435 84.0058 35.9857 83.4366 35.8106 82.8516C35.8106 82.8516 35.532 81.8951 35.4524 81.6737C35.333 81.3338 34.935 81.3812 34.9828 81.7765C35.0146 82.0532 35.0385 82.2983 35.0385 82.2983C35.0385 82.2983 35.0544 82.4722 34.935 82.5591C34.8156 82.6461 34.6724 82.5908 34.6724 82.5908L34.3062 82.4722C34.0754 82.401 33.8445 82.5117 33.7411 82.741L33.5898 83.0967C33.3908 83.5631 32.8735 83.6896 32.4755 83.3655L31.9342 82.8991Z" fill="#A08CFF"/>
<path d="M37.8242 82.986C37.7924 82.82 37.657 82.7014 37.5138 82.7172C37.4501 82.7251 37.4023 82.7647 37.3705 82.8121C37.3386 82.8595 37.3227 82.9307 37.3148 82.9939C37.2909 83.1125 37.2511 83.2627 37.1397 83.3892C36.9725 83.5789 36.6143 83.6896 35.9377 84.4406C35.2611 85.1917 34.7438 86.0296 34.5527 86.1719C34.4572 86.2431 34.306 86.2826 34.1945 86.3063C34.1707 86.3142 34.0911 86.33 34.0353 86.3538C33.9398 86.4091 33.8841 86.5198 33.908 86.6463C33.9398 86.8123 34.0751 86.9309 34.2184 86.9151C34.2662 86.9071 34.306 86.8834 34.3299 86.8518C34.3617 86.8202 34.4015 86.7332 34.4015 86.7253C34.4572 86.6146 34.5527 86.4328 34.6721 86.3221C34.887 86.1324 35.9536 85.7688 35.9536 85.7688C36.2004 85.666 36.4153 85.5079 36.5984 85.3102C36.8611 85.0256 37.0362 84.6462 37.1158 84.2351C37.1158 84.2351 37.1556 83.7291 37.3068 83.5394C37.3784 83.4445 37.474 83.3813 37.5536 83.3418C37.5695 83.3339 37.6968 83.2864 37.7526 83.2311C37.8083 83.1678 37.8401 83.0888 37.8242 82.986Z" fill="#7337B4"/>
<path d="M239.907 233.286L239.286 233.436C238.084 231.855 236.11 230.551 232.886 230.187L164.106 247.12C164.106 247.12 161.455 247.926 161.599 250.029C161.678 251.128 162.729 252.163 164.544 253.096C164.369 253.452 164.265 253.855 164.297 254.329C164.735 260.456 193.772 264.811 218.957 260.938C247.517 256.543 248.042 246.558 248.424 243.807C248.79 241.104 248.265 234.226 239.907 233.286Z" fill="#50287D"/>
<path d="M172.599 254.985L179.731 252.724C180.861 252.369 182.024 252.108 183.202 251.965L199.639 249.91C202.743 249.42 203.587 247.127 206.022 246.693C209.302 246.108 210.209 248.06 215.096 246.867C222.212 245.127 232.672 242.361 233.874 241.926C240.958 239.333 246.116 232.803 246.641 224.969L246.665 224.622C247.095 218.139 242.566 212.448 236.19 211.388C235.06 211.199 234.319 211.08 234.319 211.08L233.388 209.823C231.239 206.93 227.896 205.143 224.282 204.962L222.061 204.851C217.126 198.582 207.463 198.954 203.029 205.578L200.649 209.136C199.774 210.448 198.238 211.175 196.654 211.033C193.287 210.724 189.944 211.792 187.396 214.005L185.295 215.831C185.295 215.831 181.745 213.879 177.041 214.171C176.086 214.226 175.154 213.879 174.517 213.159L168.619 206.495C168.174 205.989 167.417 205.879 166.844 206.234C166.438 206.487 166.2 206.922 166.192 207.388C166.168 208.922 166.375 212.535 168.38 216.448C169.121 217.886 169.161 219.578 168.428 221.025L166.43 224.993C164.273 229.278 164.313 234.337 166.534 238.59L168.309 241.135L161.662 245.238C160.437 245.997 160.413 248.803 161.479 249.768L165.006 250.282L165.571 253.475C167.465 255.183 170.148 255.76 172.599 254.985Z" fill="#8264E6"/>
<path d="M188.535 216.274C187.914 216.29 187.341 216.448 186.816 216.709L185.28 215.808C185.28 215.808 181.729 213.855 177.025 214.148C176.07 214.203 175.139 213.855 174.51 213.136L169.01 206.93L172.09 213.863C172.942 215.776 174.852 217.025 176.962 216.986C179.294 216.946 182.406 217.318 184.842 219.049C184.746 219.381 184.675 219.729 184.675 220.101C184.675 222.211 186.402 223.927 188.527 223.927C189.721 223.927 190.78 223.389 191.488 222.543C192.045 221.879 197.482 213.903 197.482 213.903C197.482 213.903 193.828 216.164 188.535 216.274Z" fill="#A08CFF"/>
<path d="M166.422 224.969L165.053 228.132C163.811 230.993 163.843 234.243 165.157 237.065C166.653 240.282 169.033 244.117 172.217 245.271C177.829 247.302 185.008 243.634 189.816 240.417C193.04 238.259 194.528 234.306 193.549 230.567L193.191 229.199L193.08 230.329C192.769 233.492 190.214 235.966 187.03 236.203L181.458 236.614C180.049 236.717 178.792 237.547 178.155 238.804L177.661 239.776C177.271 240.535 176.459 240.986 175.6 240.915L174.748 240.836L173.873 241.286C173.029 241.721 171.986 241.492 171.413 240.733L170.872 240.021L170.299 239.761C169.519 239.405 169.041 238.614 169.089 237.761L169.168 236.187C169.216 235.27 168.834 234.393 168.134 233.8L167.728 233.452C166 231.982 165.252 229.673 165.793 227.476L166.422 224.969Z" fill="#A08CFF"/>
<path d="M170.378 237.104L170.298 238.053L171.055 238.677L171.27 239.167C171.572 239.839 172.392 240.1 173.029 239.721L173.65 239.349L175.114 239.325L175.289 238.472L173.14 238.812C172.511 238.914 171.875 238.693 171.437 238.235L170.378 237.104Z" fill="#7337B4"/>
<path d="M170.825 231.974C170.458 231.989 170.18 231.95 169.862 231.871C169.559 231.792 169.257 231.673 168.986 231.491C168.715 231.318 168.469 231.08 168.293 230.812C168.102 230.551 167.999 230.25 167.919 229.966C167.856 229.76 167.983 229.539 168.19 229.476C168.389 229.42 168.596 229.523 168.668 229.705L168.683 229.736C168.851 230.148 169.121 230.48 169.487 230.646C169.67 230.733 169.869 230.788 170.076 230.812C170.275 230.835 170.53 230.835 170.681 230.804H170.689C171.008 230.74 171.318 230.954 171.382 231.27C171.446 231.586 171.231 231.895 170.912 231.958C170.888 231.966 170.856 231.966 170.825 231.974Z" fill="#7337B4"/>
<path d="M178.251 232.487C178.402 232.669 178.673 232.898 178.919 233.041C179.182 233.191 179.469 233.294 179.763 233.325C180.058 233.349 180.36 233.341 180.662 233.238C180.965 233.151 181.259 232.985 181.546 232.811L181.57 232.796C181.753 232.677 182 232.732 182.119 232.922C182.231 233.096 182.183 233.317 182.032 233.444C181.713 233.689 181.379 233.926 180.981 234.092C180.599 234.274 180.145 234.345 179.707 234.345C179.262 234.345 178.816 234.234 178.418 234.053C178.012 233.863 177.678 233.649 177.319 233.302C177.073 233.064 177.073 232.669 177.311 232.432C177.55 232.187 177.948 232.187 178.187 232.424C178.203 232.44 178.219 232.456 178.235 232.479L178.251 232.487Z" fill="#7337B4"/>
<path d="M173.459 248.693C172.894 247.942 172.186 247.373 171.629 247.112C170.745 246.701 169.71 246.551 168.652 246.709C168.676 246.29 168.628 245.863 168.501 245.436C167.864 243.278 165.46 242.076 163.136 242.756C160.811 243.436 159.442 245.736 160.079 247.895C160.612 249.689 162.356 250.796 164.266 250.749C164.17 251.334 164.202 251.942 164.377 252.535C164.903 254.314 166.582 255.484 168.508 255.618C169.129 255.658 171.294 255.373 171.939 255.184C174.582 254.417 178.808 253.025 178.808 253.025C175.895 252.923 174.072 249.499 173.459 248.693Z" fill="#A08CFF"/>
<path d="M52.1042 77.3737L49.0317 76.0218C47.798 75.4764 46.4846 75.1443 45.1394 75.0258L43.7783 74.9072C42.9664 74.836 42.2261 74.4249 41.7008 73.8004C41.2471 73.2549 40.7297 72.7806 40.069 72.5276C39.8462 72.4407 39.6233 72.3853 39.3924 72.3379C39.3526 72.3853 39.3288 72.4407 39.3367 72.5039C39.3845 73.0019 39.5198 73.5316 39.7347 73.998C39.9417 74.4407 40.2282 74.8518 40.5387 75.2313C41.9475 76.9389 43.7624 77.9033 45.9035 78.1405C46.4687 78.2038 47.0896 78.267 47.5671 78.5832L49.3342 79.7374C50.0267 80.1959 50.4327 81.026 50.7351 81.7928C50.7351 81.7928 47.8696 79.9983 46.9622 79.437C46.7075 80.4489 47.1055 81.7296 47.6388 82.702C48.8248 84.8997 52.8922 88.473 53.7678 89.1607C54.5717 89.7932 55.9329 90.5126 57.2701 91.145C58.3288 91.6431 59.4909 91.7221 60.5495 91.4296C57.3975 87.2397 55.3996 82.4016 54.4842 79.8876C54.0623 78.765 53.2027 77.8559 52.1042 77.3737Z" fill="#D7F0FF"/>
<path d="M63.2641 89.4611C64.458 87.635 64.2351 85.2238 62.7148 83.6506L56.4744 77.176C55.9092 76.5752 55.2008 76.1246 54.4128 75.8637C52.3432 75.168 49.4777 73.7292 48.1325 73.0336C47.631 72.7727 47.0739 72.6778 46.5167 72.7569L43.874 73.1205C43.3964 73.1838 42.9109 73.1442 42.4492 73.0019C41.502 72.7094 40.507 72.3774 39.6076 72.2588C39.528 72.2509 39.4484 72.2825 39.4006 72.3458C39.6315 72.3932 39.8623 72.4486 40.0772 72.5355C40.7299 72.7885 41.2473 73.2628 41.709 73.8083C42.2343 74.4328 42.9666 74.8439 43.7865 74.9151L45.1476 75.0336C46.4928 75.1522 47.8062 75.4922 49.0399 76.0297L52.1124 77.3816C53.2109 77.8638 54.0705 78.7729 54.4844 79.8955C55.3998 82.4174 57.3977 87.2476 60.5498 91.4375C61.6243 91.1371 62.6114 90.4572 63.2641 89.4611Z" fill="#FFDC9B"/>
<path d="M83.6483 163.792C83.6483 163.792 55.996 136.717 47.5427 123.642C43.6981 117.689 41.4057 113.666 40.2277 111.492C39.4954 110.132 38.5402 108.907 37.4179 107.84L33.5574 104.187C32.8012 103.476 31.9415 102.867 30.9705 102.496C30.0232 102.14 29.1556 101.61 28.4074 100.931L25.7409 98.5274C24.9051 97.7764 24.0375 97.065 23.146 96.393L19.1104 93.3733C18.5054 92.9227 17.6617 92.8357 17.0249 93.2547C16.1891 93.8081 16.03 94.6618 16.5314 95.6816C17.0329 96.7013 18.7681 98.978 18.7681 98.978C19.7153 100.369 20.9411 101.579 22.4376 102.353C23.6236 102.97 24.6663 103.832 25.5021 104.867L27.5796 106.994C27.5796 106.994 23.2017 106.433 22.1988 105.974C20.9013 105.389 19.771 104.456 18.9432 103.247L16.2449 99.3258C15.823 98.7092 15.5842 97.982 15.5762 97.2389L15.5683 97.0017L15.616 93.8318C14.9633 93.1678 14.247 92.5591 13.443 92.0769C12.8142 91.7053 12.1217 91.4286 11.4133 91.2626C11.1347 91.9188 10.9835 92.6223 10.9755 93.3417C10.9755 93.3654 10.9675 93.3891 10.9675 93.4128V99.397C10.9675 99.6974 11.0073 99.9978 11.063 100.29C11.477 100.18 11.9227 100.33 12.1535 100.701L16.2289 107.168C16.4757 107.563 16.6508 107.998 16.7463 108.448L16.9453 109.413C17.1284 110.314 17.8289 111.025 18.7283 111.231L19.9462 111.508C20.3362 111.595 20.7183 111.745 21.0605 111.95L35.022 120.156C38.4367 122.164 41.151 125.16 42.7987 128.741C48.076 140.219 62.3956 168.369 81.3399 181.405C81.3558 181.428 80.2096 171.697 83.6483 163.792Z" fill="#FFDC9B"/>
<path d="M15.6244 93.8557L15.6324 93.0889L12.4166 89.563L11.5251 91.0177C11.4853 91.1046 11.4535 91.1995 11.4137 91.2864C12.1301 91.4525 12.8146 91.7212 13.4434 92.1007C14.2553 92.575 14.9638 93.1917 15.6244 93.8557Z" fill="#F9AC85"/>
<path d="M88.7035 154.464L83.649 163.8C78.4194 173.752 81.3566 181.436 81.3566 181.436C62.4123 168.401 48.0927 140.25 42.8153 128.772C41.1677 125.183 38.4534 122.195 35.0386 120.187L21.0772 111.982C20.727 111.776 20.3529 111.626 19.9628 111.539L18.745 111.262C17.8455 111.057 17.1451 110.345 16.962 109.444L16.763 108.48C16.6675 108.029 16.4924 107.594 16.2456 107.199L12.1702 100.733C11.9394 100.361 11.4936 100.211 11.0797 100.322C11.1991 100.938 11.422 101.531 11.7722 102.061L14.8686 107.262C16.5322 110.338 16.5322 113.508 16.5322 113.508C16.6914 116.598 17.2485 116.701 20.2573 118.298C23.4094 119.966 34.2586 124.994 34.2586 124.994C36.2883 125.832 37.8564 127.492 38.5728 129.555C38.8753 130.417 39.3608 131.199 40.0851 131.76L40.4991 132.084C41.2791 132.693 41.9 133.476 42.3139 134.369C45.0441 140.314 56.7768 165.547 64.8958 174.598C71.2636 181.697 78.0294 187.317 81.667 190.163C83.3545 191.483 85.6469 191.784 87.5891 190.883C98.6611 185.784 109.272 173.096 109.272 173.096L88.7035 154.464Z" fill="#F9AC85"/>
<path d="M16.7945 95.1283C17.1368 95.65 17.2403 95.7607 17.885 96.4801C18.5298 97.2074 19.5566 97.4683 20.2889 96.8042C21.0451 96.1165 20.9416 94.9939 20.1934 94.2982C19.7715 93.9029 19.4372 93.6025 18.8004 93.2151C18.1636 92.8278 17.5348 92.8199 17.0254 93.2468C16.4602 93.7132 16.4523 94.6065 16.7945 95.1283Z" fill="#FF877E"/>
<path d="M109.168 173.302C89.6265 171.341 87.2306 157.183 87.2306 157.183L115.846 97.895C118.337 92.6855 123.861 89.6025 129.64 90.2033L156.059 92.9464L165.722 167.531C170.259 202.574 145.289 234.614 109.988 239.025L103.102 239.887C103.102 239.887 92.4442 218.906 100.913 181.626L109.168 173.302Z" fill="#7337B4"/>
<path d="M150.901 176.322L151.888 173.254C153.448 168.393 152.509 163.073 149.373 159.025L147.574 156.693C145.297 153.753 144.43 149.966 145.21 146.338L145.48 145.073C149.341 127.018 141.763 107.278 128.399 96.5986C115.034 85.9188 112.607 83.1125 108.571 66.4802L103.532 45.6819C103.381 45.0574 102.991 44.5198 102.45 44.1799L91.3221 37.7135C87.0318 35.0179 84.9224 29.927 86.0846 25.01C89.8814 8.86778 105.626 -1.58277 122.095 1.09706L125.103 1.58718C140.116 4.02985 151.912 15.6662 154.475 30.5594C155.486 36.4329 156.473 42.1404 157.54 47.0811C159.068 54.1482 162.793 60.5593 168.214 65.3814C175.385 71.7529 179.095 81.1046 178.235 90.6224L177.749 95.9583C177.407 99.7607 177.702 103.595 178.641 107.294L179.437 110.456C185.478 134.385 175.831 159.507 155.287 173.373L150.901 176.322Z" fill="#50287D"/>
</svg>
