<svg width="350" height="259" viewBox="0 0 350 259" fill="none" xmlns="http://www.w3.org/2000/svg">
<path d="M176.211 148.003C149.63 143.245 139.466 122.875 139.466 122.875C153.328 123.86 164.904 116.277 164.904 116.277C137.831 104.624 135.49 88.8444 135.49 88.8444C141.231 89.9131 146.379 87.3761 146.379 87.3761C134.886 80.5179 127.5 59.553 127.5 59.553C127.5 59.553 122.511 78.585 107.748 88.0081C107.748 88.0081 114.316 90.9818 120.067 89.3462C120.067 89.3462 112.774 107.17 92.0092 113.424C92.0092 113.424 97.4257 122.448 109.727 117.69C109.727 117.69 109.067 123.108 101.356 127.206C101.356 127.206 107.423 129.994 112.347 125.895C112.347 125.895 104.635 146.74 79.3645 150.187C79.3645 150.187 89.5379 159.87 112.021 154.787C112.021 154.787 102.34 172.676 76.9025 180.557C76.9025 180.557 84.2886 185.751 103.195 190.9C113.684 193.753 128.113 193.39 138.082 189.041C143.898 186.504 150.29 185.565 156.598 186.337L160.705 186.839C165.666 187.443 170.655 186.012 174.539 182.861C174.539 182.861 154.192 177.936 146.806 156.274C146.806 156.255 165.053 159.657 176.211 148.003Z" fill="#7337B4"/>
<path d="M132.108 179.73C132.712 182.759 133.241 185.807 133.548 188.855C133.883 191.904 134.105 194.961 134.189 198.009C134.282 201.057 134.282 204.114 134.161 207.163C134.096 208.687 134.022 210.211 133.91 211.744C133.799 213.296 133.669 214.755 133.464 216.437L123.319 214.755C123.561 213.528 123.793 212.06 123.988 210.694C124.183 209.3 124.36 207.887 124.508 206.484C124.805 203.668 125.01 200.834 125.112 198C125.233 195.165 125.214 192.331 125.103 189.515C125.01 186.69 124.713 183.902 124.36 181.133L132.108 179.73Z" fill="#7337B4"/>
<path d="M148.283 179.219C145.013 181.755 140.72 182.564 136.753 181.402L130.194 179.479C124.369 177.769 118.19 177.722 112.337 179.358L110.145 179.971C107.246 180.78 104.143 179.86 102.164 177.602C100.259 175.427 97.3049 174.498 94.4898 175.148C90.7085 176.022 86.7042 177.657 83.4431 178.707C80.1821 179.758 76.9025 180.557 76.9025 180.557C76.9025 180.557 84.2886 185.751 103.195 190.9C113.684 193.753 128.113 193.39 138.082 189.041C143.898 186.504 150.29 185.566 156.598 186.337L160.705 186.839C163.176 187.145 165.657 186.932 168.007 186.263C162.331 184.952 157.695 181.774 154.861 179.395C152.975 177.787 150.243 177.704 148.283 179.219Z" fill="#8264E6"/>
<path d="M139.503 158.876C133.892 158.755 130.398 159.694 124.731 160.893C117.986 162.315 110.953 160.902 105.871 156.237L105.657 156.042C89.7794 159.49 79.3645 150.178 79.3645 150.178C79.3645 150.178 94.0346 152.659 110.581 145.392C113.155 144.258 115.747 144.472 117.707 147.511C118.785 149.184 120.262 151.693 122.724 152.724C122.724 152.724 123.105 152.213 123.523 151.795C125.883 149.407 128.55 149.769 131.012 152.52C132.851 154.574 135.592 157.519 139.503 158.876Z" fill="#8264E6"/>
<path d="M91.9998 113.415C91.9998 113.415 96.5522 121.091 105.536 118.749C105.536 118.749 105.536 121.333 102.954 122.076C102.954 122.076 106.001 124.232 110.349 122.253C111.891 121.546 113.703 121.872 114.901 123.07C116.258 124.427 118.385 124.65 119.993 123.6L121.609 122.541C122.854 121.723 124.452 121.658 125.762 122.364L127.314 123.2C129.562 124.418 132.359 123.962 134.096 122.076L135.815 120.217C135.815 120.217 130.157 122.429 125.632 117.011L125.53 116.891C124.006 115.004 121.247 114.697 119.352 116.212L119.082 116.426C116.481 118.517 112.765 118.173 110.628 115.692C110.6 115.655 110.563 115.617 110.535 115.59C109.188 114.028 107.134 113.294 105.1 113.61C98.3639 114.642 91.9998 113.415 91.9998 113.415Z" fill="#8264E6"/>
<path d="M348.312 247.587L238.05 258.376C223.984 259.751 209.788 258.227 196.325 253.906L187.044 250.923C177.567 247.875 167.701 246.212 157.75 245.988L0.65332 242.401L12.2203 236.965C25.218 230.86 38.6524 225.693 52.3934 221.529L106.001 205.257C112.226 203.371 118.896 203.585 124.982 205.88L129.395 207.544C137.571 210.619 146.694 209.923 154.303 205.629L179.853 191.216C190.389 185.278 202.857 183.8 214.489 187.127L228.982 191.272C234.9 192.963 241.209 192.758 247.006 190.695L253.287 188.456C261.258 185.612 270.057 186.328 277.461 190.417C295.541 200.388 329.554 221.446 348.312 247.587Z" fill="#7337B4"/>
<path d="M240.224 127.903C240.01 134.25 240.112 140.597 240.298 146.954L240.456 151.711L240.688 156.469C240.828 159.648 241.032 162.817 241.246 165.995L241.562 170.771C241.655 172.407 241.785 174.042 241.85 175.678C242.017 178.958 242.119 182.276 242.101 185.612C242.128 188.958 242.008 192.322 241.812 195.76C241.701 197.479 241.58 199.217 241.385 200.983C241.301 201.866 241.199 202.767 241.069 203.687L240.865 205.099C240.763 205.62 240.735 205.992 240.521 206.772L224.931 200.453C225.006 200.499 225.238 200.109 225.396 199.886C225.563 199.617 225.749 199.329 225.916 199.031C226.251 198.427 226.576 197.795 226.901 197.154C227.505 195.853 228.109 194.496 228.62 193.102C229.67 190.314 230.515 187.396 231.221 184.432C231.537 182.945 231.871 181.449 232.122 179.934L232.522 177.657L232.828 175.371C233.061 173.847 233.144 172.305 233.311 170.762C233.442 169.201 233.525 167.593 233.637 166.013C233.85 162.835 234.055 159.666 234.194 156.488L234.426 151.73L234.584 146.972C234.77 140.625 234.872 134.278 234.659 127.922H240.224V127.903Z" fill="#50287D"/>
<path d="M289.604 166.97L299.694 160.53C302.072 159.016 305.092 158.932 307.554 160.317L317.718 166.05C334.274 175.39 353.645 159.443 347.671 141.396L336.485 107.579C334.794 102.468 336.29 96.8459 340.294 93.2495L342.19 91.5489C346.965 87.2648 349.65 81.1036 349.529 74.6822L349.046 47.9278C348.879 38.5419 343.648 29.9831 335.38 25.5411L328.003 21.5823C324.918 19.9281 322.205 17.6607 320.022 14.9285L312.069 4.98507C307.117 -1.20404 297.789 -1.46424 292.512 4.44607L286.771 10.8675C283.296 14.752 277.48 15.4768 273.16 12.5681L263.442 6.01658C255.99 0.998391 245.808 4.17658 242.547 12.5495L239.313 20.8388C237.242 26.1451 232.485 29.9552 226.836 30.8288L224.188 31.2377C212.342 33.0591 204.529 44.5452 207.177 56.2357L209.853 68.047C210.131 69.2644 209.936 70.5468 209.314 71.6341L208.375 73.2883C207.279 75.2119 207.595 77.6373 209.165 79.1986L210.02 80.0535C211.831 81.8656 211.971 84.765 210.336 86.7351L210.28 86.8002C209.221 88.0826 207.632 88.761 205.997 88.6402C204.928 88.5659 203.618 88.4729 202.262 88.38C197.394 88.0455 192.776 90.5824 190.444 94.8665L174.065 124.948C169.466 133.386 173.052 143.961 181.841 147.855L207.669 159.313C214.777 162.463 223.11 160.475 228.025 154.453L243.829 135.086C248.372 129.52 257.384 132.735 257.384 139.919V142.762C257.384 146.935 260.729 150.336 264.9 150.401C268.997 150.466 272.305 153.747 272.416 157.845C272.649 166.534 282.274 171.645 289.604 166.97Z" fill="#50287D"/>
<path d="M151.702 105.238L157.564 100.461C160.212 98.305 161.132 96.5673 161.513 91.6234C161.894 86.6703 163.353 82.1074 167.097 79.0315C170.423 76.2993 175.254 77.4238 177.642 80.8064C180.029 84.1891 181.98 87.8877 181.98 87.8877C184.117 91.3818 187.564 93.8816 191.55 94.8295C202.392 97.4129 208.71 108.722 205.207 119.307L201.974 129.111C201.361 130.979 201.324 132.996 201.89 134.891L203.535 140.421C204.668 144.24 203.349 148.357 200.2 150.792L196.307 153.803C194.114 155.503 192.758 158.068 192.59 160.837C192.367 164.508 190.073 167.742 186.672 169.154L186.524 169.21C183.179 170.604 181.098 173.996 181.367 177.611L182.482 192.322L177.298 195.388L177.707 182.778C176.22 178.076 172.049 174.73 167.134 174.303L156.292 173.364C148.088 172.649 143.22 163.858 146.964 156.525L149.667 151.228C152.482 145.718 152.176 139.138 148.859 133.916L147.438 131.676C142.002 123.071 143.814 111.724 151.702 105.238Z" fill="#7337B4"/>
<path d="M230.459 218.741L210.41 212.125C210.41 212.125 214.061 196.225 228.778 187.973C228.778 187.973 232.531 191.114 238.737 188.196C247.619 184.032 230.459 218.741 230.459 218.741Z" fill="#FFDC9B"/>
<path d="M230.459 218.741L275.77 216.307C275.77 216.307 264.24 187.071 244.423 187.071C224.606 187.071 230.459 218.741 230.459 218.741Z" fill="#F9AC85"/>
<path d="M158.382 113.657L159.738 121.575C160.082 124.093 161.29 126.342 163.102 127.968L163.445 128.265C163.603 128.396 163.771 128.554 163.91 128.712C164.207 129.027 164.449 129.399 164.653 129.79C164.848 130.18 164.988 130.598 165.062 131.035C165.099 131.239 165.127 131.49 165.136 131.676L165.164 132.178L165.276 134.185C165.313 134.826 165.378 135.393 165.508 135.988C165.768 137.15 166.223 138.274 166.864 139.268C167.505 140.3 168.304 141.043 169.326 142.01L167.914 142.196C166.614 142.363 165.304 141.777 164.644 140.653C164.644 140.644 164.635 140.644 164.635 140.634C163.882 139.343 163.362 137.93 163.111 136.471C162.981 135.756 162.925 134.975 162.916 134.287L162.888 132.28L162.879 131.778C162.879 131.63 162.869 131.537 162.86 131.416C162.832 131.183 162.767 130.96 162.674 130.756C162.581 130.542 162.461 130.347 162.303 130.161C162.228 130.068 162.154 129.994 162.052 129.901L161.652 129.529C159.553 127.503 158.243 124.66 157.982 121.863L156.96 113.899L158.382 113.657Z" fill="#50287D"/>
<path d="M169.67 124.502C169.429 125.189 169.169 125.793 168.871 126.425C168.574 127.048 168.249 127.661 167.859 128.265C167.478 128.869 167.05 129.464 166.493 130.012C165.945 130.561 165.285 131.1 164.374 131.425L163.548 128.758C164.254 128.591 165.173 127.81 165.88 126.871C166.242 126.407 166.586 125.896 166.902 125.366C167.208 124.846 167.515 124.269 167.756 123.749L169.67 124.502Z" fill="#50287D"/>
<path d="M178.562 143.06C178.562 143.06 177.075 151.228 177.967 164.582L178.72 171.775C178.97 174.182 179.24 176.579 179.463 178.986C179.704 181.365 179.909 183.865 179.927 186.328C179.964 188.8 180.02 194.069 179.361 196.42C178.952 197.87 178.125 199.291 176.815 200.026C176.378 200.267 175.858 199.914 175.914 199.422C176.137 197.405 176.369 195.388 176.536 193.446C176.722 191.095 176.787 188.735 176.75 186.374C176.722 184.005 176.49 181.691 176.295 179.256C176.09 176.849 175.942 174.433 175.765 172.026L175.263 164.777C174.79 158.235 175.31 149.305 176.053 146.786C176.796 144.268 177.122 143.775 178.562 143.06Z" fill="#50287D"/>
<path d="M193.445 128.897L190.955 133.042L189.71 135.114C189.283 135.82 188.902 136.452 188.596 137.149C187.964 138.525 187.592 140.002 187.471 141.498C187.416 142.223 187.434 143.041 187.416 143.85C187.406 144.63 187.406 145.504 187.304 146.368C187.109 148.087 186.607 149.778 185.827 151.34C185.437 152.12 184.981 152.873 184.461 153.57L183.03 155.522L177.317 163.318C176.1 162.389 175.877 160.642 176.824 159.443L181.089 154.053L182.584 152.157C183.049 151.572 183.458 150.959 183.811 150.308C184.517 149.007 185.009 147.585 185.232 146.108C185.353 145.374 185.372 144.63 185.418 143.803C185.465 143.004 185.474 142.205 185.567 141.322C185.762 139.612 186.254 137.939 187.025 136.406C187.397 135.635 187.88 134.9 188.308 134.25L189.627 132.224L191.615 129.148L193.445 128.897Z" fill="#50287D"/>
<path d="M299.787 133.321L301.887 189.924C302.36 202.665 306.402 215.006 313.565 225.553C313.565 225.553 291.462 209.411 280.592 204.347C283.593 200.639 286.064 197.572 287.774 189.617C289.381 182.118 289.66 160.168 289.66 153.096C289.66 146.043 299.787 133.321 299.787 133.321Z" fill="#50287D"/>
<path d="M266.033 100.609L268.672 105.851L269.963 108.49C270.363 109.298 270.818 110.07 271.32 110.804C272.342 112.272 273.559 113.601 274.953 114.716C275.649 115.274 276.383 115.776 277.154 116.231C277.545 116.454 277.935 116.668 278.334 116.854C278.529 116.956 278.743 117.039 278.938 117.132L279.607 117.43C283.5 119.167 286.845 122.104 289.019 125.756C289.558 126.667 290.022 127.633 290.431 128.6L291.537 131.313C292.252 133.135 292.986 134.947 293.683 136.778L291.118 137.874C290.273 136.109 289.474 134.324 288.647 132.549L287.449 129.873C287.068 129.046 286.65 128.265 286.176 127.503C284.262 124.483 281.456 122.039 278.195 120.617L277.526 120.311C277.285 120.199 277.043 120.097 276.801 119.967C276.328 119.734 275.854 119.474 275.399 119.205C274.488 118.656 273.615 118.043 272.788 117.374C271.153 116.017 269.694 114.437 268.551 112.644C267.975 111.752 267.474 110.813 267.037 109.856L265.838 107.18L263.506 101.799L266.033 100.609Z" fill="#7337B4"/>
<path d="M294.491 107.876C296.052 109.53 296.842 111.761 296.665 114.028C296.349 118.266 296.043 122.513 295.68 126.722C295.272 132.094 295.039 137.474 294.946 142.846C294.909 145.531 294.909 148.217 294.965 150.903L295.179 159.006C295.188 159.285 295.197 159.619 295.197 159.991C295.272 165.734 293.088 171.273 289.121 175.427C289.177 172.537 289.344 169.925 289.335 167.203C289.298 164.489 289.307 161.766 289.335 159.053C289.326 153.653 289.502 148.087 289.883 142.632C290.245 137.149 290.831 131.694 291.63 126.267C292.419 120.868 293.646 113.248 294.491 107.876Z" fill="#7337B4"/>
<path d="M301.561 84.0773C301.561 84.0773 303.169 80.2765 304.181 78.8825C305.185 77.47 306.365 76.1876 307.665 75.0445C308.316 74.4684 308.994 73.9387 309.709 73.4554C310.062 73.2045 310.425 72.9815 310.796 72.7492L311.753 72.1358C314.225 70.4445 316.343 68.1956 317.829 65.5657C318.573 64.2554 319.177 62.8615 319.613 61.4118C319.818 60.7055 320.003 59.9249 320.199 59.135L320.765 56.7839L322.382 57.1463C322.382 57.1463 321.444 63.6607 320.106 66.4114C318.768 69.1621 316.241 72.5447 313.435 74.552L312.376 75.2676C312.06 75.472 311.753 75.6764 311.447 75.8995C310.843 76.3362 310.258 76.8102 309.709 77.3213C308.604 78.3342 307.619 79.468 306.773 80.6946C305.919 81.9399 305.25 83.2223 304.665 84.6627L302.806 89.1326L301.561 84.0773Z" fill="#7337B4"/>
<path d="M38.9683 226.064C38.9683 226.064 44.329 224.076 47.9338 228.611C48.4913 229.308 49.5318 229.382 50.1915 228.787C51.4271 227.672 53.118 227.226 54.7439 227.588L58.1072 228.351C61.424 229.094 64.8987 228.434 67.7045 226.51C70.5289 224.578 74.1615 224.252 77.2832 225.665L79.6059 226.715C83.2014 228.341 87.215 228.797 91.0893 228.044L91.3866 227.988C92.6129 227.746 93.8207 227.802 95.0006 227.877C99.7018 228.165 101.588 230.748 107.237 230.99C112.885 231.222 115.598 229.689 115.598 229.689C115.598 229.689 103.111 213.194 88.9803 214.374C87.6424 214.485 83.5638 215.833 82.2259 216.809L76.7072 213.742C69.8228 209.625 60.913 211.865 56.7972 218.751L56.0818 219.95L49.4668 218.779C45.5089 218.082 41.5883 220.163 39.9531 223.843L38.9683 226.064Z" fill="#A08CFF"/>
<path d="M98.522 228.499C103.112 223.788 104.58 224.011 110.888 225.907C121.015 217.896 136.01 223.24 136.01 223.24L142.207 224.652C144 225.061 145.877 224.931 147.596 224.271L149.863 223.407C152.752 222.31 156.013 223.425 157.611 226.065C158.865 228.128 161.299 229.159 163.65 228.639L167.664 227.737C170.219 227.17 172.894 227.598 175.143 228.936L178.822 231.139C181.256 232.598 184.368 232.244 186.422 230.284L188.391 228.397C191.197 225.721 195.638 225.823 198.314 228.62L202.996 233.518C205.737 236.38 208.868 238.833 212.306 240.812C212.306 240.812 214.507 242.067 215.827 242.662C205.068 243.842 200.915 238.313 181.683 235.562C178.246 235.069 175.57 236.045 173.888 237.616C172.532 238.88 170.627 239.344 168.834 238.87C163.538 237.458 140.702 232.179 117.038 238.508C115.18 237.337 107.339 232.505 98.522 228.499Z" fill="#A08CFF"/>
<path d="M198.119 219.391C198.583 217.625 198.593 215.293 198.128 213.527C198.044 213.202 197.933 212.858 197.673 212.625C197.487 212.458 197.255 212.375 197.022 212.291C196.372 212.049 195.638 211.826 195.006 212.105C194.412 212.365 194.087 212.997 193.854 213.601C193.501 214.53 192.293 215.906 193.26 216.668C193.613 216.937 198.091 219.474 198.119 219.391Z" fill="#50287D"/>
<path d="M185.771 211.529C186.189 213.88 187.564 215.933 188.902 217.904C188.345 218.907 187.239 219.409 186.431 220.218C186.366 220.283 186.301 220.348 186.273 220.431C186.189 220.636 186.31 220.877 186.477 221.026C186.923 221.426 187.592 221.416 188.178 221.407C188.382 221.407 188.586 221.323 188.717 221.175C189.107 220.747 189.432 220.171 189.989 220.06C190.249 220.013 190.556 220.078 190.76 219.911C190.956 219.734 190.937 219.428 190.891 219.167C190.658 217.718 190.426 216.259 190.194 214.809C190.203 214.874 190.946 215.292 191.048 215.404C191.318 215.692 191.457 215.98 191.513 216.361C191.662 217.355 191.652 218.387 191.541 219.381C191.429 220.366 191.123 221.249 190.807 222.188C191.104 222.364 191.439 222.373 191.782 222.392C192.163 222.411 192.544 222.439 192.907 222.336C193.353 222.216 193.761 221.723 193.854 221.268C193.91 220.97 193.91 220.691 193.91 220.338C193.91 220.106 193.891 219.864 193.761 219.669C193.659 219.521 193.511 219.409 193.418 219.251C193.26 218.963 193.39 218.619 193.464 218.303C193.78 216.872 194.068 216.064 194.393 214.958C194.681 213.982 194.644 212.393 194.644 212.393C194.644 212.421 196.056 212.486 196.158 212.486C196.818 212.477 197.292 212.207 197.608 211.612C197.914 211.036 197.914 210.339 197.766 209.707C197.617 209.075 197.422 208.434 197.115 207.867C197.115 207.867 198.723 204.336 198.871 202.821C198.936 202.189 198.918 201.576 198.881 201.083C198.825 200.396 198.397 199.792 197.756 199.531L194.895 198.342L193.12 194.439L190.008 195.089L189.831 196.678L190.733 199.318C190.733 199.318 189.534 199.736 188.531 200.219C188.057 200.442 187.704 200.851 187.555 201.353C187.351 202.041 187.119 203.202 187.119 204.838L185.771 211.529Z" fill="#321450"/>
<path d="M184.684 211.679C184.879 211.641 185.037 211.483 185.084 211.288C185.418 210.024 185.567 209.411 186.022 208.045C186.301 207.209 186.905 206.567 187.165 204.839C187.769 204.718 188.401 204.848 188.912 205.192C188.772 205.898 188.679 206.577 188.54 207.283C188.382 208.11 188.215 208.965 187.797 209.699C187.23 210.721 186.245 211.474 185.743 212.524C185.641 212.747 185.446 213.649 185.177 213.853C184.917 214.048 184.554 214.048 184.238 213.965C183.922 213.881 183.644 213.704 183.374 213.528C183.235 213.435 183.096 213.333 182.993 213.203C182.891 213.072 182.826 212.896 182.863 212.738C182.882 212.645 182.928 212.571 182.984 212.496C183.235 212.162 183.96 211.799 184.684 211.679Z" fill="#F9AC85"/>
<path d="M188.345 211.391C188.261 210.991 188.335 210.573 188.493 210.192C188.651 209.82 188.884 209.476 189.135 209.151C190.008 208.891 190.872 208.649 191.745 208.398C192.461 208.185 193.195 208.222 193.891 207.952C194.495 207.72 195.062 207.543 195.731 207.404C195.917 207.367 196.075 207.246 196.14 207.069C196.418 206.317 196.604 205.518 196.706 204.728C197.357 204.709 197.979 204.718 198.62 204.821C198.351 206.261 197.877 207.683 197.227 209.002C196.242 209.328 195.127 209.411 194.105 209.263C193.287 209.151 192.405 208.891 191.671 209.281C191.401 209.421 191.178 209.644 190.955 209.867C190.695 210.127 190.435 210.387 190.249 210.694C190.156 210.852 190.082 211.019 189.971 211.168C189.599 211.651 188.791 211.79 188.345 211.391Z" fill="#F9AC85"/>
<path d="M190.333 199.894C190.147 198.909 189.961 197.924 189.776 196.939C189.664 196.363 189.553 195.777 189.581 195.192C189.59 194.941 189.627 194.69 189.711 194.449C189.952 193.705 190.575 193.101 191.327 192.869C192.07 192.646 192.897 192.832 193.566 193.24C194.876 194.049 195.824 196.335 195.935 197.106C196.038 197.868 196.103 198.77 195.694 199.448C195.554 199.68 195.35 199.857 195.118 199.996C194.96 200.089 194.737 200.136 194.635 199.996C194.579 199.931 194.579 199.838 194.579 199.755C194.532 198.844 194.3 197.952 193.882 197.134C193.622 196.632 193.222 196.112 192.656 196.075C192.34 196.047 192.07 196.196 191.764 196.289C191.457 196.381 191.086 196.419 190.816 196.251C190.593 196.112 190.482 195.852 190.38 195.61C190.296 196.428 190.305 197.218 190.918 197.971C191.076 198.166 191.42 198.379 191.42 198.956C191.42 199.532 190.686 199.829 190.333 199.894Z" fill="#321450"/>
<path d="M190.38 197.022C190.426 197.142 190.389 197.273 190.38 197.393C190.342 197.895 190.742 198.304 191.104 198.638C191.29 198.806 191.476 198.982 191.662 199.149C191.82 199.289 191.978 199.437 192.182 199.484C192.572 199.567 192.935 199.242 193.195 198.936C193.455 198.629 193.724 198.248 193.641 197.849C193.566 197.486 193.223 197.226 193.176 196.864C193.158 196.715 193.185 196.566 193.176 196.418C193.167 196.269 193.093 196.12 192.953 196.055C192.842 196.009 192.693 195.99 192.526 196.028C191.857 196.167 191.968 196.241 191.03 196.343C190.603 196.39 190.315 196.409 190.212 196.501C190.017 196.687 190.324 196.854 190.38 197.022Z" fill="#F9AC85"/>
<path d="M194.402 198.436C194.514 198.473 194.579 198.576 194.625 198.687C194.848 199.198 194.672 199.802 194.356 200.267C194.04 200.731 193.603 201.093 193.25 201.521C193.195 201.261 192.962 201.066 192.73 200.926C192.498 200.787 192.238 200.685 192.052 200.499C191.792 200.248 191.634 199.802 191.671 199.44C191.717 199.012 192.21 199.245 192.516 199.328C192.842 199.412 193.018 199.356 193.288 199.142C193.529 198.947 194.04 198.297 194.402 198.436Z" fill="#F9AC85"/>
<path d="M202.866 221.26C201.203 221.213 199.447 220.191 197.942 219.475C197.273 217.403 197.078 215.349 197.171 213.175C197.18 213.008 197.189 212.822 197.282 212.682C197.366 212.552 197.505 212.478 197.645 212.413C198.592 212.013 199.67 212.376 200.627 212.738C201.417 213.035 202.253 213.379 202.708 214.086C203.07 214.652 203.117 215.359 203.154 216.037C203.265 217.784 203.395 219.578 202.866 221.26Z" fill="#50287D"/>
<path d="M203.684 221.334C203.609 221.669 203.842 221.92 203.981 222.236C204.158 222.645 204.25 223.091 204.241 223.537C204.241 223.63 204.232 223.723 204.195 223.806C204.139 223.918 204.018 223.983 203.907 224.029C203.582 224.159 203.219 224.159 202.866 224.159C202.402 224.159 201.937 224.159 201.473 224.169C201.407 224.169 201.333 224.169 201.268 224.131C201.175 224.076 201.138 223.955 201.129 223.853C201.101 223.509 201.24 223.174 201.38 222.858C201.584 222.394 201.788 221.938 201.993 221.474C202.476 220.396 202.513 219.113 202.513 217.924C202.513 216.744 202.42 215.805 202.485 214.327C200.831 213.918 199.577 213.528 198.007 213.129C198.416 214.114 198.648 215.108 198.676 216.177C198.704 217.143 198.676 218.416 198.676 219.383C198.676 220.349 198.695 221.055 199.206 221.873C199.345 222.106 199.187 222.282 199.029 222.505C198.871 222.728 198.639 222.877 198.407 223.026C198.221 223.137 198.026 223.249 197.803 223.286C197.543 223.323 197.282 223.249 197.032 223.174C196.753 223.091 196.474 223.007 196.195 222.923C196.065 222.886 195.907 222.83 195.852 222.71C195.787 222.57 195.861 222.403 195.954 222.282C196.195 222.003 196.576 221.91 196.855 221.669C197.812 220.87 197.227 219.736 196.809 217.747C196.456 216.065 196.065 214.392 195.982 212.673C195.963 212.264 195.945 211.855 196.084 211.474C196.558 210.08 198.825 210.657 199.856 210.982C199.559 209.969 199.326 208.937 199.168 207.897C199.141 207.739 199.066 207.19 199.057 207.051C198.75 207.014 198.434 207.07 198.174 206.939C197.923 206.819 197.124 206.177 196.883 205.964C197.208 205.276 197.543 204.579 197.868 203.891C197.961 203.687 198.063 203.482 198.221 203.324C198.444 203.101 198.76 203.009 199.057 202.925C199.977 202.674 200.915 202.488 201.863 202.386C202.197 202.349 202.541 202.321 202.866 202.395C203.284 202.488 203.647 202.73 204.037 202.906C204.557 203.139 205.152 203.259 205.542 203.678C205.756 203.91 205.876 204.207 205.997 204.495C206.267 205.137 206.536 205.787 206.796 206.428C206.443 206.744 205.774 206.902 205.217 207.032C205.337 208.166 205.43 209.495 205.913 210.517C206.071 210.842 206.257 211.158 206.369 211.502C206.564 212.097 206.499 212.775 206.192 213.324L203.684 221.334Z" fill="#50287D"/>
<path d="M205.579 206.93C204.836 206.949 204.148 207.265 204.148 207.265L203.814 209.672C203.219 209.941 202.745 210.424 202.188 210.759C201.463 211.196 200.59 211.4 199.958 211.967C199.568 212.311 199.298 212.766 199.075 213.231C198.936 213.51 198.815 213.798 198.704 214.095C198.574 214.448 198.462 214.811 198.481 215.182C198.499 215.489 198.611 215.777 198.722 216.065C198.871 216.112 198.964 216.112 199.113 216.14C199.289 216.167 199.512 216.167 199.67 216.084C199.735 216.056 199.791 216.009 199.837 215.963C200.06 215.777 200.237 215.535 200.358 215.275C200.265 214.485 200.33 213.714 200.59 212.98C200.673 212.738 200.869 212.562 201.11 212.478C201.9 212.209 203.767 211.549 204.826 211.001C204.836 211.001 205.523 208.835 205.579 206.93Z" fill="#F9AC85"/>
<path d="M199.206 213.082C199.224 212.831 199.261 212.366 199.289 212.106C199.308 211.939 199.336 211.799 199.326 211.632C199.243 211.511 199.085 211.483 198.936 211.446C198.314 211.298 197.738 210.926 197.357 210.406C197.44 208.956 197.58 207.98 197.728 206.633C198.091 206.893 198.509 207.014 198.964 207.032C198.955 207.915 198.825 208.835 198.695 209.709C198.955 210.117 199.336 210.452 199.763 210.675C199.958 210.777 200.153 210.852 200.33 210.982C200.506 211.102 200.655 211.288 200.673 211.502L199.206 213.082Z" fill="#F9AC85"/>
<path d="M200.813 197.795C201.677 197.795 202.532 198.315 202.903 199.096C202.968 199.226 203.015 199.366 203.108 199.486C203.191 199.598 203.293 199.691 203.386 199.793C203.721 200.183 203.842 200.732 203.804 201.243C203.786 201.549 203.712 201.847 203.628 202.135C203.451 202.739 202.727 203.027 202.197 202.683L202.188 202.674C201.816 202.432 201.556 202.051 201.259 201.726C200.553 200.936 199.559 200.499 198.964 199.616C198.62 199.105 198.927 198.669 199.382 198.306C199.772 197.99 200.283 197.795 200.813 197.795Z" fill="#321450"/>
<path d="M198.806 199.124C198.592 199.365 198.481 199.681 198.49 200.006C198.499 200.22 198.564 200.434 198.583 200.648C198.602 200.861 198.592 201.019 198.453 201.233C198.397 201.307 198.314 201.419 198.267 201.503C198.221 201.586 198.23 201.679 198.314 201.716C198.379 201.744 198.481 201.735 198.546 201.763C198.564 201.772 198.583 201.781 198.592 201.837C198.685 202.125 198.787 202.423 198.89 202.711C198.917 202.794 198.955 202.878 199.02 202.934C199.168 203.082 199.419 203.027 199.614 202.962C199.809 202.896 200.014 202.841 200.209 202.776C200.311 202.748 200.385 202.794 200.404 202.915C200.413 203.017 200.413 203.147 200.413 203.25C200.413 204.17 200.878 205.08 201.612 205.629C202.216 204.95 202.578 204.086 202.764 203.398C202.764 203.398 202.16 202.673 201.575 201.893C201.649 201.772 201.667 201.67 201.686 201.53C201.714 201.391 201.686 201.233 201.602 201.122C201.519 201.019 201.379 200.964 201.249 200.964C201.119 200.964 200.989 201.019 200.878 201.094C200.265 200.369 199.521 199.755 198.806 199.124Z" fill="#F9AC85"/>
<path d="M203.684 221.334C204.241 221.222 204.808 221.111 205.319 220.869C205.83 220.618 206.295 220.219 206.49 219.689C206.61 219.364 206.657 219.011 206.638 218.667C206.545 216.762 206.387 215.349 206.22 213.314L204.836 214.913C204.836 214.913 204.892 216.046 204.687 217.403C204.511 218.611 204.093 219.977 203.684 221.334Z" fill="#50287D"/>
<path d="M179.426 226.287C179.426 226.287 178.366 225.962 177.883 225.786C173.628 224.243 172.42 220.08 175.421 215.777C177.744 212.45 180.02 211.177 180.02 211.177C180.02 211.177 180.141 216.957 179.667 220.805L182.789 216.669C182.789 216.66 184.498 222.905 179.426 226.287Z" fill="#FF877E"/>
</svg>
