<svg width="48" height="48" viewBox="0 0 48 48" fill="none" xmlns="http://www.w3.org/2000/svg">
<path d="M34.6065 10.3939C41.7879 17.5753 40.9999 30.8722 40.9999 40.0005H6.99988C6.99988 30.8722 6.21191 17.5753 13.3933 10.3939C16.2063 7.58084 20.0216 6.00049 23.9999 6.00049C27.9781 6.00049 31.7934 7.58084 34.6065 10.3939Z" fill="#FFB345"/>
<path d="M27.9647 6.53391C27.988 6.35941 28 6.18135 28 6.00049C28 3.79135 26.2091 2.00049 24 2.00049C21.7909 2.00049 20 3.79135 20 6.00049C20 6.18135 20.012 6.35941 20.0353 6.53391C21.3161 6.18284 22.6487 6.00049 24 6.00049C25.3513 6.00049 26.6839 6.18284 27.9647 6.53391Z" fill="#FCC8BE"/>
<path d="M18 40.0005C18 43.3142 20.6863 46.0005 24 46.0005C27.3137 46.0005 30 43.3142 30 40.0005H18Z" fill="#50287D"/>
</svg>
