<svg width="24" height="24" viewBox="0 0 24 24" fill="none" xmlns="http://www.w3.org/2000/svg">
<path fill-rule="evenodd" clip-rule="evenodd" d="M4 3H22V19.5L18 16.5H4V3ZM5 13C5 13.5518 5.44819 14 6 14C6.55181 14 6.99875 13.5518 7 13C7 12.4482 6.55181 12 6 12C5.44819 12 5 12.4482 5 13ZM8 13C8 13.5518 8.44819 14 9 14C9.55181 14 9.99875 13.5518 10 13C10 12.4482 9.55181 12 9 12C8.44819 12 8 12.4482 8 13ZM12 14C11.4482 14 11 13.5518 11 13C11 12.4482 11.4482 12 12 12C12.5518 12 13 12.4482 13 13C12.9988 13.5518 12.5518 14 12 14Z" fill="#506478" fill-opacity="0.6"/>
<path fill-rule="evenodd" clip-rule="evenodd" d="M2 7H16V19H6L2 22V7ZM5 13C5 13.5518 5.44819 14 6 14C6.55181 14 6.99875 13.5518 7 13C7 12.4482 6.55181 12 6 12C5.44819 12 5 12.4482 5 13ZM8 13C8 13.5518 8.44819 14 9 14C9.55181 14 9.99875 13.5518 10 13C10 12.4482 9.55181 12 9 12C8.44819 12 8 12.4482 8 13ZM12 14C11.4482 14 11 13.5518 11 13C11 12.4482 11.4482 12 12 12C12.5518 12 13 12.4482 13 13C12.9988 13.5518 12.5518 14 12 14Z" fill="#506478"/>
</svg>
