<svg width="466" height="391" viewBox="0 0 466 391" fill="none" xmlns="http://www.w3.org/2000/svg">
<g clip-path="url(#clip0)">
<path d="M223.81 77.5562C221.908 90.6898 213.666 102.048 201.755 107.945L183.587 116.936C157.354 129.925 137.035 152.361 126.724 179.729L121.746 192.956C118.004 202.882 112.111 211.862 104.493 219.244L77.5942 245.304C65.9015 256.631 63.3031 274.395 71.275 288.588C78.2698 301.047 91.9892 308.169 106.218 306.726C113.826 305.958 121.393 308.512 126.963 313.734C141.629 327.491 163.174 331.021 181.467 322.663L326.051 256.61C346.651 247.204 358.874 225.64 356.348 203.151L354.384 185.595C353.033 173.541 358.625 161.757 368.831 155.175L414.999 125.398C430.288 115.535 436.306 96.151 429.29 79.3835C422.753 63.758 406.56 54.4347 389.743 56.6254L380.596 57.8193C373.56 58.733 366.409 57.2898 360.288 53.7079L321.031 30.7318C302.759 20.0379 280.32 19.3008 261.372 28.7591L257.776 30.5553C239.442 39.7229 226.752 57.2794 223.81 77.5562Z" fill="#B4C8FF"/>
<path d="M241.77 184.162L241.874 179.355L253.65 173.489L253.359 169.938L241.947 175.753L242.311 158.746L255.064 151.842L254.388 148.572L242.383 155.164L242.487 150.347L165.367 193.672L154.475 213.316L161.938 223.044L241.77 184.162Z" fill="#8264E6"/>
<path d="M243.038 111.558L242.986 116.407L253.598 109.679L253.827 113.24L242.924 120.041L242.612 137.047L252.735 131.129L252.631 134.846L242.539 140.733L242.446 145.602L165.877 189.353L157.261 180.456L168.673 159.11L243.038 111.558Z" fill="#8264E6"/>
<path d="M241.053 115.213L170.232 160.272L159.693 180.02L166.552 186.986L167.779 186.28L161.595 180.134L171.229 161.716L238.912 118.982C240.211 118.151 241.012 116.739 241.053 115.213Z" fill="#50287D"/>
<path d="M240.253 153.877L166.656 194.981L156.408 213.087L162.416 220.895L163.694 220.251L158.3 213.202L167.644 196.424L238.039 157.531C239.38 156.784 240.222 155.403 240.253 153.877Z" fill="#50287D"/>
<path d="M243.038 111.558L245.003 112.524L244.961 115.151L242.986 116.407L243.038 111.558Z" fill="#50287D"/>
<path d="M244.867 120.996L244.639 135.884L242.612 137.047L242.924 120.041L253.827 113.24L255.614 114.32L244.867 120.996Z" fill="#50287D"/>
<path d="M242.539 140.733L242.446 145.602L165.877 189.353L168.309 190.007L244.473 146.796L244.545 141.968L254.263 136.351L253.234 134.493L242.539 140.733Z" fill="#50287D"/>
<path d="M241.874 179.355L241.77 184.162L161.969 223.054L164.401 223.709L243.87 185.533L243.963 180.632L253.806 175.856L253.245 173.686L241.874 179.355Z" fill="#50287D"/>
<path d="M242.487 150.347L244.389 151.105L244.358 154.074L242.383 155.164L242.487 150.347Z" fill="#50287D"/>
<path d="M244.275 159.701L244.046 174.683L241.947 175.753L242.29 158.767L253.889 152.475L255.5 153.669L244.275 159.701Z" fill="#50287D"/>
<path d="M183.941 163.096C183.577 162.006 182.766 161.113 181.716 160.646C179.804 159.795 177.559 160.511 176.489 162.307L173.35 167.592L169.639 173.842C168.423 175.887 169.099 178.556 171.136 179.781C171.822 180.196 172.591 180.404 173.37 180.404C173.755 180.404 174.14 180.352 174.514 180.248C175.667 179.937 176.624 179.189 177.195 178.14L180.771 171.631L183.65 166.377C184.201 165.38 184.304 164.176 183.941 163.096ZM182.278 165.64L179.399 170.894L174.826 168.402L174.711 168.339L177.829 163.096C178.494 161.975 179.898 161.539 181.082 162.058C181.748 162.349 182.236 162.889 182.465 163.584C182.693 164.28 182.631 165.007 182.278 165.64Z" fill="#B4C8FF"/>
<path d="M186.414 200.888V200.94C186.061 205.944 183.078 210.398 178.567 212.61L177.985 212.89C172.778 215.455 166.76 211.416 167.155 205.633C167.488 200.857 170.221 196.569 174.41 194.254L175.262 193.776C180.49 190.9 186.83 194.95 186.414 200.888Z" fill="#FF877E"/>
<path d="M174.587 197.701L178.952 195.406L178.64 199.881L182.964 197.639L182.745 202.02L178.339 204.439L178.203 208.82L173.797 211.063L174.098 206.505L169.598 208.914L169.993 204.439L174.316 201.989L174.587 197.701Z" fill="#8264E6"/>
<path d="M270.145 353L264.106 58.5046C264.033 55.0991 261.258 52.379 257.849 52.379C254.44 52.379 251.654 55.0991 251.592 58.5046L251.031 85.9763C249.888 87.2637 249.222 88.9248 249.181 90.6898L249.025 96.2029C248.994 97.4903 249.669 98.6739 250.771 99.3072L250.615 107.115C249.638 108.35 249.056 109.887 249.014 111.496L248.859 117.009C248.827 118.193 249.409 119.293 250.355 119.958L250.231 125.886C249.098 127.173 248.443 128.824 248.401 130.568L248.266 137.41C248.235 138.667 248.879 139.84 249.94 140.484L249.836 145.758C248.672 147.056 247.986 148.727 247.944 150.503L247.85 158.154C247.819 159.411 248.464 160.573 249.513 161.228L249.357 168.744C248.318 170.001 247.705 171.579 247.663 173.25L246.749 203.421C246.718 204.74 247.435 205.955 248.578 206.578L248.38 216.493C247.289 217.77 246.655 219.379 246.614 221.092L245.98 248.18C245.948 249.446 246.603 250.62 247.674 251.263L247.175 275.921C246.177 275.807 245.47 275.776 245.47 275.776L245.294 284.31C245.283 284.746 245.086 285.162 244.753 285.442C244.067 286.044 243.631 286.916 243.631 287.892C243.631 289.252 244.462 290.426 245.647 290.914C246.364 291.215 246.697 291.952 246.52 292.71C246.291 293.675 245.637 294.35 244.899 294.952L243.787 295.845C240.752 298.275 240.565 302.822 243.392 305.49L244.826 306.84C245.896 307.858 246.489 309.27 246.458 310.744L245.585 353H270.145Z" fill="#A08CFF"/>
<path d="M260.957 223.875L264.553 225.235L269.646 223.927L269.5 221.165L260.957 223.875Z" fill="#50287D"/>
<path d="M259.793 195.946L267.952 192.842L268.336 195.707L263.098 197.597L259.793 195.946Z" fill="#50287D"/>
<path d="M240.242 267.958L240.471 242.771L247.112 244.525L251.561 242.771L251.551 237.569L240.502 234.548V227.207L90.4614 185.335L47.8376 202.394L45.9148 207.325L80.9617 246.456L236.677 284.009L240.107 281.071L240.17 276.243L247.04 277.977L251.623 276.285L251.665 270.876L240.242 267.958Z" fill="#50287D"/>
<path d="M100.19 234.319L100.512 231.661L111.789 234.537L112.059 232.461L93.2365 227.654C92.0204 227.342 91.0642 226.449 90.6693 225.256C90.2223 223.895 90.5965 222.411 91.6255 221.466C94.65 218.683 97.8304 217.448 99.9715 216.908L102.559 223.906L105.324 222.681L105.927 224.321C106.239 225.172 107.216 225.588 108.058 225.214C108.827 224.871 109.191 223.999 108.899 223.221L108.224 221.404L110.687 220.314L102.476 198.293L99.8571 199.268L97.8304 193.818L94.8786 194.918L96.895 200.369L94.2135 201.366L99.2439 214.946C96.8534 215.579 93.4651 216.96 90.212 219.95C88.5906 221.445 87.9981 223.781 88.6945 225.91C89.3077 227.778 90.8148 229.19 92.7272 229.678L98.4852 231.153L98.163 233.811L87.6344 231.111L86.8029 236.863L112.267 243.248L112.995 237.621L100.19 234.319Z" fill="#B4C8FF"/>
<path d="M271.922 295.866L270.81 294.973C270.051 294.371 269.313 293.613 269.178 292.689C269.064 291.91 269.542 291.194 270.248 290.831C271.465 290.208 272.244 288.847 271.984 287.342C271.87 286.646 271.506 286.013 271.007 285.535C270.643 285.193 270.404 284.736 270.394 284.227L270.124 270.938C270.082 269.235 269.448 267.626 268.378 266.359L268.066 251.232C269.095 250.578 269.729 249.426 269.708 248.18L269.074 221.092C269.032 219.41 268.409 217.822 267.359 216.555L267.078 202.923C268.097 202.269 268.731 201.127 268.7 199.881L268.087 173.271C268.045 171.589 267.421 170.001 266.372 168.734L266.216 161.196C267.234 160.542 267.868 159.4 267.837 158.154L267.744 150.503C267.702 148.748 267.037 147.087 265.894 145.799L265.779 140.452C266.808 139.798 267.442 138.656 267.411 137.41L267.276 130.568C267.234 128.845 266.59 127.215 265.478 125.938L265.343 119.542C266.153 118.868 266.642 117.85 266.611 116.76L266.455 111.247C266.424 109.762 265.935 108.34 265.093 107.156L264.096 58.5046C264.064 57.051 263.534 55.7117 262.682 54.6735C262.578 54.5385 262.318 54.2374 261.913 53.8844C259.335 51.6418 255.303 53.5314 255.282 56.9368L255.116 92.3822C255.116 92.756 254.887 93.0986 254.554 93.2543C253.951 93.545 253.099 94.0953 253.172 94.822C253.213 95.2373 253.505 95.5177 253.848 95.6942C254.658 96.1198 255.105 97.0127 255.095 97.9264L255.022 113.137C255.022 113.51 254.814 113.843 254.471 114.009C253.868 114.299 253.026 114.839 253.099 115.566C253.141 115.971 253.411 116.241 253.733 116.417C254.544 116.864 254.991 117.777 254.98 118.701L254.908 133.185C254.908 133.559 254.679 133.901 254.346 134.057C253.744 134.348 252.891 134.898 252.964 135.625C253.006 136.04 253.297 136.32 253.64 136.497C254.45 136.922 254.897 137.815 254.887 138.719L254.814 153.783C254.814 154.157 254.596 154.489 254.263 154.656C253.66 154.946 252.819 155.486 252.891 156.213C252.933 156.618 253.203 156.888 253.536 157.064C254.346 157.511 254.793 158.424 254.793 159.348L254.606 199.435C254.606 199.808 254.388 200.141 254.055 200.307C253.453 200.597 252.6 201.137 252.673 201.874C252.715 202.279 252.985 202.549 253.328 202.736C254.139 203.172 254.585 204.086 254.585 205.01L254.471 229.575L254.45 234.797C254.44 236.552 252.777 237.829 251.083 237.382L247.601 236.458L246.499 244.328L248.599 244.795C251.904 245.522 254.263 248.408 254.378 251.772L254.294 269.038C253.993 270.242 252.767 271.042 251.499 270.73L245.553 269.287L245.46 277.551L250.605 278.849C252.767 279.389 254.263 281.351 254.222 283.584C254.201 284.207 253.827 284.757 253.265 285.027C252.237 285.525 251.54 286.574 251.415 287.311C251.156 288.827 251.935 290.176 253.151 290.799C253.66 291.059 254.045 291.516 254.18 292.045V292.793C253.993 293.655 253.307 294.371 252.59 294.942L251.478 295.835C248.443 298.264 248.256 302.812 251.083 305.48L252.507 306.83C253.442 307.712 253.983 308.906 254.097 310.173L254.087 311.959V312.042L253.889 353H270.155L269.282 310.432C269.344 309.083 269.905 307.795 270.893 306.861L272.317 305.511C275.133 302.843 274.946 298.295 271.922 295.866Z" fill="#50287D"/>
<path d="M266.195 181.972L266.289 187.921L259.948 191.285V196.31L266.33 193.112L266.683 216.451L260.208 219.514L260.26 224.934L266.777 221.809L266.881 227.81L405.011 163.366L431.14 122.543L393.921 115.608L266.195 181.972Z" fill="#8264E6"/>
<path d="M266.33 193.112L266.382 196.112L262.349 198.054L259.948 196.31L266.33 193.112Z" fill="#50287D"/>
<path d="M266.777 221.809V224.664L263.16 226.377L260.26 224.934L266.777 221.809Z" fill="#50287D"/>
<path d="M431.14 122.543L405.011 163.366L266.881 227.81L270.28 229.606L407.37 166.44L433.967 125.502L431.14 122.543Z" fill="#50287D"/>
<path d="M423.148 125.377L393.37 119.854L269.261 183.643L270.093 222.857C271.672 222.162 272.681 220.594 272.649 218.87L271.984 185.439L394.378 123.062L418.398 127.599C420.3 127.942 422.212 127.049 423.148 125.377Z" fill="#50287D"/>
<path d="M384.286 164.726L394.43 143.401C396.197 139.736 394.254 135.355 390.346 134.202C387.207 133.278 383.87 134.773 382.478 137.732L379.536 144.325L376.574 142.56C373.363 140.639 369.195 141.761 367.376 145.021C365.744 147.938 366.534 151.614 369.226 153.597L384.286 164.726Z" fill="#FF877E"/>
<path d="M380.596 161.01L377.281 152.506L360.911 160.553L360.225 159.161L378.112 150.357L380.337 156.068L385.617 136.974L387.155 148.935L401.456 141.792L402.153 143.183L385.897 151.302L385.066 144.844L380.596 161.01Z" fill="white"/>
<path d="M264.303 78.5113L264.387 83.3184L258.847 87.0456L258.899 91.8319L264.47 88.1358L264.74 104.986L259.065 108.579L259.117 113.365L264.823 109.804L264.896 114.611L355.538 58.7226L377.094 25.0734L351.037 19.3215L264.303 78.5113Z" fill="#8264E6"/>
<path d="M264.896 114.611L268.211 115.607L357.648 60.716L379.121 27.0979L377.094 25.0734L355.538 58.7226L264.896 114.611Z" fill="#50287D"/>
<path d="M264.865 112.202L264.823 109.804L259.117 113.365L261.601 114.227L264.865 112.202Z" fill="#50287D"/>
<path d="M264.47 88.1357V90.5652L261.081 92.7974L258.899 91.8319L264.47 88.1357Z" fill="#50287D"/>
<path d="M266.902 109.731L266.351 79.5599L351.339 21.9586L372.292 26.8695C371.544 28.1569 370.037 28.811 368.582 28.4787L351.64 24.5957L268.388 80.6293L268.804 106.16C268.825 107.592 268.107 108.942 266.902 109.731Z" fill="#50287D"/>
<path d="M316.084 69.3022C315.045 69.3022 314.078 68.9388 313.319 68.2536C312.457 67.4749 311.978 66.3744 311.978 65.17C311.978 62.7821 313.849 60.716 316.229 60.4668C317.435 60.3422 318.589 60.7056 319.462 61.4843C320.324 62.263 320.803 63.3635 320.803 64.5678C320.803 66.9558 318.932 69.0219 316.552 69.271C316.396 69.2918 316.24 69.3022 316.084 69.3022ZM316.687 63.5711C316.645 63.5711 316.593 63.5711 316.552 63.5815C315.772 63.6646 315.097 64.4121 315.097 65.1804C315.097 65.4919 315.2 65.7618 315.408 65.9487C315.616 66.1356 315.897 66.2186 316.229 66.1875C317.009 66.1044 317.684 65.3569 317.684 64.5886C317.684 64.2771 317.581 64.0072 317.373 63.8203C317.196 63.6542 316.957 63.5711 316.687 63.5711Z" fill="#D7F0FF"/>
<path d="M356.421 44.0731L355.018 32.0295C354.904 31.0432 354.29 30.2022 353.386 29.7766C352.482 29.3613 351.443 29.4339 350.622 29.9946L349.665 30.6279L350.528 31.9257L351.484 31.2924C351.869 31.0432 352.316 31.0017 352.731 31.1989C353.147 31.3858 353.417 31.7596 353.469 32.2164L354.873 44.2599C355.247 47.3643 353.781 50.4478 351.152 52.1194L350.58 52.4828C349.53 53.1472 348.283 53.2407 347.14 52.7527C346.007 52.2544 345.217 51.2784 344.999 50.0533L342.941 38.9442C342.816 37.8333 343.315 36.7535 344.25 36.1306L345.872 35.0508L344.999 33.753L343.377 34.8431C341.964 35.7879 341.205 37.4284 341.403 39.1726L343.471 50.3336C343.783 52.0467 344.926 53.4795 346.527 54.1751C347.192 54.4658 347.909 54.6111 348.616 54.6111C348.907 54.6111 349.198 54.58 349.489 54.5281C347.618 57.3832 344.074 58.8575 340.633 57.9646L327.912 54.6942C323.048 53.4379 318.09 56.0543 316.365 60.7575L315.803 62.2837L317.269 62.8236L317.83 61.2974C319.275 57.3417 323.453 55.151 327.527 56.21L340.249 59.4805C345.019 60.7056 349.936 58.1411 351.702 53.6144L351.994 53.4276C355.122 51.4341 356.858 47.7588 356.421 44.0731Z" fill="#B4C8FF"/>
<path d="M349.187 33.4311C348.699 33.4311 348.21 33.2027 347.909 32.7667C347.41 32.0607 347.587 31.0951 348.283 30.5968L349.499 29.7454C350.206 29.247 351.172 29.4235 351.671 30.1192C352.17 30.8148 351.993 31.7907 351.297 32.2891L350.081 33.1404C349.811 33.3377 349.499 33.4311 349.187 33.4311Z" fill="#FF877E"/>
<path d="M344.489 36.5458C343.98 36.5458 343.481 36.2967 343.19 35.8398C342.712 35.1235 342.92 34.1579 343.637 33.6803L344.791 32.9224C345.508 32.4448 346.475 32.6525 346.953 33.3688C347.431 34.0852 347.223 35.0508 346.506 35.5284L345.352 36.2863C345.082 36.4628 344.78 36.5458 344.489 36.5458Z" fill="#FF877E"/>
</g>
<defs>
<clipPath id="clip0">
<rect width="449" height="353" fill="white" transform="translate(17)"/>
</clipPath>
</defs>
</svg>
