<svg width="24" height="24" viewBox="0 0 24 24" fill="none" xmlns="http://www.w3.org/2000/svg">
<path fill-rule="evenodd" clip-rule="evenodd" d="M16.3303 14.5C15.6905 15.6082 14.628 16.4723 13.2943 16.8297C11.9606 17.187 10.6084 16.97 9.50023 16.3302L7.00024 20.6603C8.13752 21.3169 9.393 21.743 10.695 21.9145C11.997 22.0859 13.32 21.9992 14.5884 21.6593C15.8569 21.3194 17.046 20.733 18.0879 19.9335C19.1297 19.1341 20.0039 18.1373 20.6605 17L16.3303 14.5Z" fill="#F9C1CB"/>
<path fill-rule="evenodd" clip-rule="evenodd" d="M4.06646 18.0876C4.8659 19.1295 5.86272 20.0036 7 20.6603L9.49998 16.3302C8.39179 15.6903 7.52768 14.6278 7.17032 13.2941C6.81297 11.9604 7.03002 10.6082 7.66984 9.49998L3.33975 7C2.68314 8.13728 2.25696 9.39275 2.08555 10.6947C1.91414 11.9967 2.00086 13.3197 2.34074 14.5882C2.68063 15.8567 3.26703 17.0458 4.06646 18.0876Z" fill="#ED0C0C"/>
<path fill-rule="evenodd" clip-rule="evenodd" d="M5.9126 4.06647C4.87076 4.8659 3.99657 5.86272 3.33997 7L7.67006 9.49998C8.30987 8.39182 9.37242 7.52773 10.7061 7.17038C12.0398 6.81302 13.392 7.03008 14.5002 7.6699L17.0002 3.33975C15.8629 2.68314 14.6075 2.25696 13.3055 2.08555C12.0035 1.91414 10.6805 2.00086 9.41203 2.34074C8.14355 2.68063 6.95445 3.26703 5.9126 4.06647Z" fill="#F9C1CB"/>
<path fill-rule="evenodd" clip-rule="evenodd" d="M19.9335 5.91248C19.1341 4.87064 18.1373 3.99645 17 3.33984L14.5 7.66999C15.6082 8.3098 16.4722 9.37235 16.8296 10.706C17.187 12.0397 16.9699 13.3919 16.3301 14.5001L20.6603 17.0001C21.3169 15.8628 21.7431 14.6073 21.9145 13.3054C22.0859 12.0034 21.9992 10.6804 21.6593 9.4119C21.3194 8.14343 20.733 6.95433 19.9335 5.91248Z" fill="#ED0C0C"/>
</svg>
