<svg width="24" height="24" viewBox="0 0 24 24" fill="none" xmlns="http://www.w3.org/2000/svg">
<path d="M2.46924 17.1955C2.95459 17.3965 3.47473 17.5 4 17.5V9.5C3.47473 9.5 2.95459 9.60347 2.46924 9.80449C1.98395 10.0055 1.54303 10.3001 1.17157 10.6716C0.80011 11.043 0.505493 11.484 0.304504 11.9693C0.103455 12.4546 0 12.9747 0 13.5C0 14.0253 0.103455 14.5454 0.304504 15.0307C0.505493 15.516 0.80011 15.957 1.17157 16.3284C1.54303 16.6999 1.98395 16.9945 2.46924 17.1955Z" fill="#506478" fill-opacity="0.6"/>
<path d="M21.5308 17.1955C21.0454 17.3965 20.5253 17.5 20 17.5V9.5C20.5253 9.5 21.0454 9.60347 21.5308 9.80449C22.0161 10.0055 22.457 10.3001 22.8284 10.6716C23.1999 11.043 23.4945 11.484 23.6955 11.9693C23.8965 12.4546 24 12.9747 24 13.5C24 14.0253 23.8965 14.5454 23.6955 15.0307C23.4945 15.516 23.1999 15.957 22.8284 16.3284C22.457 16.6999 22.0161 16.9945 21.5308 17.1955Z" fill="#506478" fill-opacity="0.6"/>
<circle cx="12" cy="20.5" r="2" fill="#506478" fill-opacity="0.3"/>
<path d="M18 9.5C18 7.9087 17.3679 6.38258 16.2426 5.25736C15.1174 4.13214 13.5913 3.5 12 3.5C10.4087 3.5 8.88258 4.13214 7.75736 5.25736C6.63214 6.38258 6 7.9087 6 9.5V17.5H4V9.5C4 7.37827 4.84286 5.34344 6.34315 3.84315C7.84344 2.34285 9.87827 1.5 12 1.5C14.1217 1.5 16.1566 2.34285 17.6569 3.84315C19.1571 5.34344 20 7.37827 20 9.5V17.5C19.9985 19.7077 18.2079 21.5 16.0044 21.5H13.7324C13.9026 21.2058 14 20.8643 14 20.5C14 20.1357 13.9026 19.7942 13.7324 19.5H16.0044C17.1028 19.5 17.9985 18.6038 18 17.5V9.5Z" fill="#506478"/>
</svg>
