<svg width="449" height="353" viewBox="0 0 449 353" fill="none" xmlns="http://www.w3.org/2000/svg">
<g clip-path="url(#clip0)">
<path d="M206.81 77.5562C204.908 90.6898 196.666 102.048 184.755 107.945L166.587 116.936C140.354 129.925 120.035 152.361 109.724 179.729L104.746 192.956C101.004 202.882 95.1111 211.862 87.4926 219.244L60.5942 245.304C48.9015 256.631 46.3031 274.395 54.275 288.588C61.2698 301.047 74.9892 308.169 89.218 306.726C96.826 305.958 104.393 308.512 109.963 313.734C124.629 327.491 146.174 331.021 164.467 322.663L309.051 256.61C329.651 247.204 341.874 225.64 339.348 203.151L337.384 185.595C336.033 173.541 341.625 161.757 351.831 155.175L397.999 125.398C413.288 115.535 419.306 96.151 412.29 79.3835C405.753 63.758 389.56 54.4347 372.743 56.6254L363.596 57.8193C356.56 58.733 349.409 57.2898 343.288 53.7079L304.031 30.7318C285.759 20.0379 263.32 19.3008 244.372 28.7591L240.776 30.5553C222.442 39.7229 209.752 57.2794 206.81 77.5562Z" fill="#B4C8FF"/>
<path d="M224.77 184.162L224.874 179.355L236.65 173.489L236.359 169.938L224.947 175.753L225.311 158.746L238.064 151.842L237.388 148.572L225.383 155.164L225.487 150.347L148.367 193.672L137.475 213.316L144.938 223.044L224.77 184.162Z" fill="#8264E6"/>
<path d="M226.038 111.558L225.986 116.407L236.598 109.679L236.827 113.24L225.924 120.041L225.612 137.047L235.735 131.129L235.631 134.846L225.539 140.733L225.446 145.602L148.877 189.353L140.261 180.456L151.673 159.11L226.038 111.558Z" fill="#8264E6"/>
<path d="M224.053 115.213L153.232 160.272L142.693 180.02L149.552 186.986L150.779 186.28L144.595 180.134L154.229 161.716L221.912 118.982C223.211 118.151 224.012 116.739 224.053 115.213Z" fill="#50287D"/>
<path d="M223.253 153.877L149.656 194.981L139.408 213.087L145.416 220.895L146.694 220.251L141.3 213.202L150.644 196.424L221.039 157.531C222.38 156.784 223.222 155.403 223.253 153.877Z" fill="#50287D"/>
<path d="M226.038 111.558L228.003 112.524L227.961 115.151L225.986 116.407L226.038 111.558Z" fill="#50287D"/>
<path d="M227.867 120.996L227.639 135.884L225.612 137.047L225.924 120.041L236.827 113.24L238.614 114.32L227.867 120.996Z" fill="#50287D"/>
<path d="M225.539 140.733L225.446 145.602L148.877 189.353L151.309 190.007L227.473 146.796L227.545 141.968L237.263 136.351L236.234 134.493L225.539 140.733Z" fill="#50287D"/>
<path d="M224.874 179.355L224.77 184.162L144.969 223.054L147.401 223.709L226.87 185.533L226.963 180.632L236.806 175.856L236.245 173.686L224.874 179.355Z" fill="#50287D"/>
<path d="M225.487 150.347L227.389 151.105L227.358 154.074L225.383 155.164L225.487 150.347Z" fill="#50287D"/>
<path d="M227.275 159.701L227.046 174.683L224.947 175.753L225.29 158.767L236.889 152.475L238.5 153.669L227.275 159.701Z" fill="#50287D"/>
<path d="M166.941 163.096C166.577 162.006 165.766 161.113 164.716 160.646C162.804 159.795 160.559 160.511 159.489 162.307L156.35 167.592L152.639 173.842C151.423 175.887 152.099 178.556 154.136 179.781C154.822 180.196 155.591 180.404 156.37 180.404C156.755 180.404 157.14 180.352 157.514 180.248C158.667 179.937 159.624 179.189 160.195 178.14L163.771 171.631L166.65 166.377C167.201 165.38 167.304 164.176 166.941 163.096ZM165.278 165.64L162.399 170.894L157.826 168.402L157.711 168.339L160.829 163.096C161.494 161.975 162.898 161.539 164.082 162.058C164.748 162.349 165.236 162.889 165.465 163.584C165.693 164.28 165.631 165.007 165.278 165.64Z" fill="#B4C8FF"/>
<path d="M169.414 200.888V200.94C169.061 205.944 166.078 210.398 161.567 212.61L160.985 212.89C155.778 215.455 149.76 211.416 150.155 205.633C150.488 200.857 153.221 196.569 157.41 194.254L158.262 193.776C163.49 190.9 169.83 194.95 169.414 200.888Z" fill="#FF877E"/>
<path d="M157.587 197.701L161.952 195.406L161.64 199.881L165.964 197.639L165.745 202.02L161.339 204.439L161.203 208.82L156.797 211.063L157.098 206.505L152.598 208.914L152.993 204.439L157.316 201.989L157.587 197.701Z" fill="#8264E6"/>
<path d="M253.145 353L247.106 58.5046C247.033 55.0991 244.258 52.379 240.849 52.379C237.44 52.379 234.654 55.0991 234.592 58.5046L234.031 85.9763C232.888 87.2637 232.222 88.9248 232.181 90.6898L232.025 96.2029C231.994 97.4903 232.669 98.6739 233.771 99.3072L233.615 107.115C232.638 108.35 232.056 109.887 232.014 111.496L231.859 117.009C231.827 118.193 232.409 119.293 233.355 119.958L233.231 125.886C232.098 127.173 231.443 128.824 231.401 130.568L231.266 137.41C231.235 138.667 231.879 139.84 232.94 140.484L232.836 145.758C231.672 147.056 230.986 148.727 230.944 150.503L230.85 158.154C230.819 159.411 231.464 160.573 232.513 161.228L232.357 168.744C231.318 170.001 230.705 171.579 230.663 173.25L229.749 203.421C229.718 204.74 230.435 205.955 231.578 206.578L231.38 216.493C230.289 217.77 229.655 219.379 229.614 221.092L228.98 248.18C228.948 249.446 229.603 250.62 230.674 251.263L230.175 275.921C229.177 275.807 228.47 275.776 228.47 275.776L228.294 284.31C228.283 284.746 228.086 285.162 227.753 285.442C227.067 286.044 226.631 286.916 226.631 287.892C226.631 289.252 227.462 290.426 228.647 290.914C229.364 291.215 229.697 291.952 229.52 292.71C229.291 293.675 228.637 294.35 227.899 294.952L226.787 295.845C223.752 298.275 223.565 302.822 226.392 305.49L227.826 306.84C228.896 307.858 229.489 309.27 229.458 310.744L228.585 353H253.145Z" fill="#A08CFF"/>
<path d="M243.957 223.875L247.553 225.235L252.646 223.927L252.5 221.165L243.957 223.875Z" fill="#50287D"/>
<path d="M242.793 195.946L250.952 192.842L251.336 195.707L246.098 197.597L242.793 195.946Z" fill="#50287D"/>
<path d="M223.242 267.958L223.471 242.771L230.112 244.525L234.561 242.771L234.551 237.569L223.502 234.548V227.207L73.4614 185.335L30.8376 202.394L28.9148 207.325L63.9617 246.456L219.677 284.009L223.107 281.071L223.17 276.243L230.04 277.977L234.623 276.285L234.665 270.876L223.242 267.958Z" fill="#50287D"/>
<path d="M83.1897 234.319L83.5119 231.661L94.7889 234.537L95.0591 232.461L76.2365 227.654C75.0204 227.342 74.0642 226.449 73.6693 225.256C73.2223 223.895 73.5965 222.411 74.6255 221.466C77.65 218.683 80.8304 217.448 82.9715 216.908L85.5595 223.906L88.3241 222.681L88.9269 224.321C89.2388 225.172 90.2157 225.588 91.0576 225.214C91.8267 224.871 92.1905 223.999 91.8995 223.221L91.2239 221.404L93.6872 220.314L85.4763 198.293L82.8571 199.268L80.8304 193.818L77.8786 194.918L79.895 200.369L77.2135 201.366L82.2439 214.946C79.8534 215.579 76.4651 216.96 73.212 219.95C71.5906 221.445 70.9981 223.781 71.6945 225.91C72.3077 227.778 73.8148 229.19 75.7272 229.678L81.4852 231.153L81.163 233.811L70.6344 231.111L69.8029 236.863L95.267 243.248L95.9945 237.621L83.1897 234.319Z" fill="#B4C8FF"/>
<path d="M254.922 295.866L253.81 294.973C253.051 294.371 252.313 293.613 252.178 292.689C252.064 291.91 252.542 291.194 253.248 290.831C254.465 290.208 255.244 288.847 254.984 287.342C254.87 286.646 254.506 286.013 254.007 285.535C253.643 285.193 253.404 284.736 253.394 284.227L253.124 270.938C253.082 269.235 252.448 267.626 251.378 266.359L251.066 251.232C252.095 250.578 252.729 249.426 252.708 248.18L252.074 221.092C252.032 219.41 251.409 217.822 250.359 216.555L250.078 202.923C251.097 202.269 251.731 201.127 251.7 199.881L251.087 173.271C251.045 171.589 250.421 170.001 249.372 168.734L249.216 161.196C250.234 160.542 250.868 159.4 250.837 158.154L250.744 150.503C250.702 148.748 250.037 147.087 248.894 145.799L248.779 140.452C249.808 139.798 250.442 138.656 250.411 137.41L250.276 130.568C250.234 128.845 249.59 127.215 248.478 125.938L248.343 119.542C249.153 118.868 249.642 117.85 249.611 116.76L249.455 111.247C249.424 109.762 248.935 108.34 248.093 107.156L247.096 58.5046C247.064 57.051 246.534 55.7117 245.682 54.6735C245.578 54.5385 245.318 54.2374 244.913 53.8844C242.335 51.6418 238.303 53.5314 238.282 56.9368L238.116 92.3822C238.116 92.756 237.887 93.0986 237.554 93.2543C236.951 93.545 236.099 94.0953 236.172 94.822C236.213 95.2373 236.505 95.5177 236.848 95.6942C237.658 96.1198 238.105 97.0127 238.095 97.9264L238.022 113.137C238.022 113.51 237.814 113.843 237.471 114.009C236.868 114.299 236.026 114.839 236.099 115.566C236.141 115.971 236.411 116.241 236.733 116.417C237.544 116.864 237.991 117.777 237.98 118.701L237.908 133.185C237.908 133.559 237.679 133.901 237.346 134.057C236.744 134.348 235.891 134.898 235.964 135.625C236.006 136.04 236.297 136.32 236.64 136.497C237.45 136.922 237.897 137.815 237.887 138.719L237.814 153.783C237.814 154.157 237.596 154.489 237.263 154.656C236.66 154.946 235.819 155.486 235.891 156.213C235.933 156.618 236.203 156.888 236.536 157.064C237.346 157.511 237.793 158.424 237.793 159.348L237.606 199.435C237.606 199.808 237.388 200.141 237.055 200.307C236.453 200.597 235.6 201.137 235.673 201.874C235.715 202.279 235.985 202.549 236.328 202.736C237.139 203.172 237.585 204.086 237.585 205.01L237.471 229.575L237.45 234.797C237.44 236.552 235.777 237.829 234.083 237.382L230.601 236.458L229.499 244.328L231.599 244.795C234.904 245.522 237.263 248.408 237.378 251.772L237.294 269.038C236.993 270.242 235.767 271.042 234.499 270.73L228.553 269.287L228.46 277.551L233.605 278.849C235.767 279.389 237.263 281.351 237.222 283.584C237.201 284.207 236.827 284.757 236.265 285.027C235.237 285.525 234.54 286.574 234.415 287.311C234.156 288.827 234.935 290.176 236.151 290.799C236.66 291.059 237.045 291.516 237.18 292.045V292.793C236.993 293.655 236.307 294.371 235.59 294.942L234.478 295.835C231.443 298.264 231.256 302.812 234.083 305.48L235.507 306.83C236.442 307.712 236.983 308.906 237.097 310.173L237.087 311.959V312.042L236.889 353H253.155L252.282 310.432C252.344 309.083 252.905 307.795 253.893 306.861L255.317 305.511C258.133 302.843 257.946 298.295 254.922 295.866Z" fill="#50287D"/>
<path d="M249.195 181.972L249.289 187.921L242.948 191.285V196.31L249.33 193.112L249.683 216.451L243.208 219.514L243.26 224.934L249.777 221.809L249.881 227.81L388.011 163.366L414.14 122.543L376.921 115.608L249.195 181.972Z" fill="#8264E6"/>
<path d="M249.33 193.112L249.382 196.112L245.349 198.054L242.948 196.31L249.33 193.112Z" fill="#50287D"/>
<path d="M249.777 221.809V224.664L246.16 226.377L243.26 224.934L249.777 221.809Z" fill="#50287D"/>
<path d="M414.14 122.543L388.011 163.366L249.881 227.81L253.28 229.606L390.37 166.44L416.967 125.502L414.14 122.543Z" fill="#50287D"/>
<path d="M406.148 125.377L376.37 119.854L252.261 183.643L253.093 222.857C254.672 222.162 255.681 220.594 255.649 218.87L254.984 185.439L377.378 123.062L401.398 127.599C403.3 127.942 405.212 127.049 406.148 125.377Z" fill="#50287D"/>
<path d="M367.286 164.726L377.43 143.401C379.197 139.736 377.254 135.355 373.346 134.202C370.207 133.278 366.87 134.773 365.478 137.732L362.536 144.325L359.574 142.56C356.363 140.639 352.195 141.761 350.376 145.021C348.744 147.938 349.534 151.614 352.226 153.597L367.286 164.726Z" fill="#FF877E"/>
<path d="M363.596 161.01L360.281 152.506L343.911 160.553L343.225 159.161L361.112 150.357L363.337 156.068L368.617 136.974L370.155 148.935L384.456 141.792L385.153 143.183L368.897 151.302L368.066 144.844L363.596 161.01Z" fill="white"/>
<path d="M247.303 78.5113L247.387 83.3184L241.847 87.0456L241.899 91.8319L247.47 88.1358L247.74 104.986L242.065 108.579L242.117 113.365L247.823 109.804L247.896 114.611L338.538 58.7226L360.094 25.0734L334.037 19.3215L247.303 78.5113Z" fill="#8264E6"/>
<path d="M247.896 114.611L251.211 115.607L340.648 60.716L362.121 27.0979L360.094 25.0734L338.538 58.7226L247.896 114.611Z" fill="#50287D"/>
<path d="M247.865 112.202L247.823 109.804L242.117 113.365L244.601 114.227L247.865 112.202Z" fill="#50287D"/>
<path d="M247.47 88.1357V90.5652L244.081 92.7974L241.899 91.8319L247.47 88.1357Z" fill="#50287D"/>
<path d="M249.902 109.731L249.351 79.5599L334.339 21.9586L355.292 26.8695C354.544 28.1569 353.037 28.811 351.582 28.4787L334.64 24.5957L251.388 80.6293L251.804 106.16C251.825 107.592 251.107 108.942 249.902 109.731Z" fill="#50287D"/>
<path d="M299.084 69.3022C298.045 69.3022 297.078 68.9388 296.319 68.2536C295.457 67.4749 294.978 66.3744 294.978 65.17C294.978 62.7821 296.849 60.716 299.229 60.4668C300.435 60.3422 301.589 60.7056 302.462 61.4843C303.324 62.263 303.803 63.3635 303.803 64.5678C303.803 66.9558 301.932 69.0219 299.552 69.271C299.396 69.2918 299.24 69.3022 299.084 69.3022ZM299.687 63.5711C299.645 63.5711 299.593 63.5711 299.552 63.5815C298.772 63.6646 298.097 64.4121 298.097 65.1804C298.097 65.4919 298.2 65.7618 298.408 65.9487C298.616 66.1356 298.897 66.2186 299.229 66.1875C300.009 66.1044 300.684 65.3569 300.684 64.5886C300.684 64.2771 300.581 64.0072 300.373 63.8203C300.196 63.6542 299.957 63.5711 299.687 63.5711Z" fill="#D7F0FF"/>
<path d="M339.421 44.0731L338.018 32.0295C337.904 31.0432 337.29 30.2022 336.386 29.7766C335.482 29.3613 334.443 29.4339 333.622 29.9946L332.665 30.6279L333.528 31.9257L334.484 31.2924C334.869 31.0432 335.316 31.0017 335.731 31.1989C336.147 31.3858 336.417 31.7596 336.469 32.2164L337.873 44.2599C338.247 47.3643 336.781 50.4478 334.152 52.1194L333.58 52.4828C332.53 53.1472 331.283 53.2407 330.14 52.7527C329.007 52.2544 328.217 51.2784 327.999 50.0533L325.941 38.9442C325.816 37.8333 326.315 36.7535 327.25 36.1306L328.872 35.0508L327.999 33.753L326.377 34.8431C324.964 35.7879 324.205 37.4284 324.403 39.1726L326.471 50.3336C326.783 52.0467 327.926 53.4795 329.527 54.1751C330.192 54.4658 330.909 54.6111 331.616 54.6111C331.907 54.6111 332.198 54.58 332.489 54.5281C330.618 57.3832 327.074 58.8575 323.633 57.9646L310.912 54.6942C306.048 53.4379 301.09 56.0543 299.365 60.7575L298.803 62.2837L300.269 62.8236L300.83 61.2974C302.275 57.3417 306.453 55.151 310.527 56.21L323.249 59.4805C328.019 60.7056 332.936 58.1411 334.702 53.6144L334.994 53.4276C338.122 51.4341 339.858 47.7588 339.421 44.0731Z" fill="#B4C8FF"/>
<path d="M332.187 33.4311C331.699 33.4311 331.21 33.2027 330.909 32.7667C330.41 32.0607 330.587 31.0951 331.283 30.5968L332.499 29.7454C333.206 29.247 334.172 29.4235 334.671 30.1192C335.17 30.8148 334.993 31.7907 334.297 32.2891L333.081 33.1404C332.811 33.3377 332.499 33.4311 332.187 33.4311Z" fill="#FF877E"/>
<path d="M327.489 36.5458C326.98 36.5458 326.481 36.2967 326.19 35.8398C325.712 35.1235 325.92 34.1579 326.637 33.6803L327.791 32.9224C328.508 32.4448 329.475 32.6525 329.953 33.3688C330.431 34.0852 330.223 35.0508 329.506 35.5284L328.352 36.2863C328.082 36.4628 327.78 36.5458 327.489 36.5458Z" fill="#FF877E"/>
</g>
<defs>
<clipPath id="clip0">
<rect width="449" height="353" fill="white"/>
</clipPath>
</defs>
</svg>
