<svg width="48" height="48" viewBox="0 0 48 48" fill="none" xmlns="http://www.w3.org/2000/svg">
<path d="M31.5898 34.6756C29.5632 35.5286 27.3367 36 25 36C20.7967 36 16.9497 34.4745 13.9824 31.947C13.6598 31.982 13.332 32 13 32C8.02944 32 4 27.9706 4 23C4 19.7044 5.77138 16.8225 8.41398 15.2544C10.1199 7.66764 16.8981 2 25 2C34.3888 2 42 9.61116 42 19C42 20.1486 41.8861 21.2706 41.669 22.3553C43.1096 23.802 44 25.797 44 28C44 32.4183 40.4183 36 36 36C34.3702 36 32.8541 35.5126 31.5898 34.6756Z" fill="#CEDC00"/>
<path d="M26 14C26 12.8954 25.1046 12 24 12C22.8954 12 22 12.8954 22 14L22 25.1724L17.8778 21.0502C17.0968 20.2692 15.8305 20.2692 15.0494 21.0502C14.2684 21.8313 14.2684 23.0976 15.0494 23.8787L22 30.8292V44H26V26.8285L32.9498 19.8787C33.7308 19.0977 33.7308 17.8313 32.9498 17.0503C32.1687 16.2692 30.9024 16.2692 30.1213 17.0503L26 21.1716L26 14Z" fill="#285082"/>
</svg>
