<svg width="221" height="24" viewBox="0 0 221 24" fill="none" xmlns="http://www.w3.org/2000/svg">
<g clip-path="url(#clip0)">
<path d="M25.8915 12.9125H31.1859V8.88993H33.5428V19.7744H31.1859V15.4139H25.8915V19.7744H23.5346V8.88993H25.8915V12.9125ZM81.2611 19.7406V18.5913C81.2611 18.5913 80.0655 20.0449 77.9478 20.0449C75.181 20.0449 72.3117 18.0505 72.3117 14.3322C72.3117 10.1744 75.3518 8.5857 77.777 8.5857C79.9289 8.5857 81.2269 9.97162 81.2269 9.97162V8.85613H83.5155V19.7406H81.2611ZM74.6345 14.3322C74.6345 15.7519 75.7275 17.5096 78.1185 17.5096C80.2363 17.5096 81.1927 16.2251 81.1927 16.2251V12.3716C80.4413 11.5604 79.3482 11.0871 78.1185 11.0871C76.0691 11.0871 74.6345 12.473 74.6345 14.3322ZM89.3564 12.9125H94.6509V8.88993H97.0077V19.7744H94.6509V15.4139H89.3564V19.7744H86.9995V8.88993H89.3564V12.9125ZM111.661 19.7744H114.701V16.766H111.661V19.7744ZM9.39335 9.16035C9.39335 11.6618 7.61716 13.8589 4.44049 13.8589H2.45935V19.7744H0V4.36035H4.40634C7.20726 4.36035 9.39335 6.32092 9.39335 9.16035ZM2.39104 11.3237H4.71376C5.32859 11.3237 5.84096 11.1209 6.25085 10.7491C6.66074 10.3773 6.86569 9.83641 6.86569 9.19416C6.86569 8.5857 6.66074 8.07866 6.28501 7.67303C5.90927 7.26739 5.36275 7.06458 4.74791 7.06458H2.39104V11.3237ZM54.5498 20.0787C51.8855 20.0787 48.8796 18.0843 48.8796 14.3322C48.8796 11.0533 51.3731 8.61951 54.5839 8.61951C56.8383 8.61951 58.3413 9.97162 58.6145 10.4787L57.9655 12.4054C57.9655 12.4054 56.5651 11.1209 54.9255 11.1209C52.3637 11.1209 51.2706 12.8787 51.2706 14.3322C51.2706 16.3266 52.8419 17.5773 54.9597 17.5773C56.4968 17.5773 57.8289 16.6646 58.1363 16.3266L58.8195 18.2533C58.7853 18.2533 57.2824 20.0787 54.5498 20.0787ZM66.3342 20.0787C63.6699 20.0787 60.664 18.0843 60.664 14.3322C60.664 11.0533 63.1575 8.61951 66.3683 8.61951C68.6227 8.61951 70.1257 9.97162 70.3989 10.4787L69.7499 12.4054C69.7499 12.4054 68.3495 11.1209 66.7099 11.1209C64.1481 11.1209 63.055 12.8787 63.055 14.3322C63.055 16.3266 64.6263 17.5773 66.744 17.5773C68.2811 17.5773 69.6133 16.6646 69.9207 16.3266L70.6039 18.2533C70.6039 18.2533 69.0668 20.0787 66.3342 20.0787ZM105.035 20.0787C102.37 20.0787 99.3646 18.0843 99.3646 14.3322C99.3646 11.0533 101.858 8.61951 105.069 8.61951C107.323 8.61951 108.826 9.97162 109.1 10.4787L108.451 12.4054C108.451 12.4054 107.05 11.1209 105.411 11.1209C102.849 11.1209 101.756 12.8787 101.756 14.3322C101.756 16.3266 103.327 17.5773 105.445 17.5773C106.982 17.5773 108.314 16.6646 108.621 16.3266L109.304 18.2533C109.304 18.2533 107.802 20.0787 105.035 20.0787ZM42.0822 17.7463C44.0292 17.7463 45.1906 16.6984 45.498 16.2927L46.1811 18.1181C46.0445 18.3885 44.4733 20.1125 42.0481 20.1125C38.6665 20.1125 36.2413 17.9153 36.2413 14.3998C36.2413 11.7294 38.0516 8.65331 41.7407 8.65331C44.9856 8.65331 47.0009 11.2561 47.0009 14.2984C47.0009 14.6364 46.9668 14.9068 46.9326 15.1435H38.6323C38.7689 16.0223 39.6912 17.7463 42.0822 17.7463ZM41.6382 11.1209C39.5204 11.1209 38.7689 12.6082 38.6665 13.2505H44.6441C44.3708 12.1688 43.3461 11.1209 41.6382 11.1209ZM16.0541 17.7463C18.0011 17.7463 19.1624 16.6984 19.4699 16.2927L20.153 18.1181C20.0164 18.3885 18.4451 20.1125 16.0199 20.1125C12.6383 20.1125 10.2131 17.9153 10.2131 14.3998C10.2131 11.7294 12.0235 8.65331 15.7125 8.65331C18.9575 8.65331 20.9728 11.2561 20.9728 14.2984C20.9728 14.6364 20.9386 14.9068 20.9045 15.1435H12.6383C12.7408 16.0223 13.6972 17.7463 16.0541 17.7463ZM15.61 11.1209C13.4923 11.1209 12.7408 12.6082 12.6383 13.2505H18.6159C18.3427 12.1688 17.3521 11.1209 15.61 11.1209Z" fill="#50287D"/>
<path d="M120.03 15.4141L111.661 0H128.364L120.03 15.4141Z" fill="#CEDC00"/>
<path d="M139.397 13.9784C140.083 13.4389 140.503 12.622 140.503 11.6509C140.503 9.93995 139.273 8.69141 137.466 8.69141C136.22 8.69141 135.098 9.38504 134.647 10.2328L134.958 11.6355C135.566 10.834 136.376 10.2636 137.482 10.2636C138.432 10.2636 139.039 10.9264 139.039 11.7742C139.039 12.622 138.432 13.3619 137.357 13.3619H136.376V14.9341H137.326C138.743 14.9341 139.475 15.7973 139.475 16.7221C139.475 17.8474 138.712 18.5564 137.466 18.5564C136.329 18.5564 135.285 18.0478 134.553 17.015L134.148 18.3406C134.522 19.2192 135.784 20.1287 137.466 20.1287C139.46 20.1287 140.955 18.8339 140.955 16.7838C140.955 15.4428 140.332 14.4871 139.397 13.9784Z" fill="#50287D"/>
<path d="M152.55 8.87638H146.475V9.81663C146.475 13.516 145.462 16.0285 144.076 18.3869H143.188V22.3175H144.59V19.9437H152.69V22.3175H154.092V18.3869H152.55V8.87638ZM145.79 18.3869C146.942 16.4601 147.908 13.2848 147.908 10.4332H151.085V18.3869H145.79Z" fill="#50287D"/>
<path d="M162.055 8.69141C159.065 8.69141 156.479 11.1577 156.479 14.4254C156.479 17.6624 159.049 20.1287 162.086 20.1287C165.03 20.1287 167.631 17.6778 167.631 14.41C167.631 11.1422 165.046 8.69141 162.055 8.69141ZM162.071 10.2636C164.36 10.2636 166.152 11.99 166.152 14.41C166.152 16.8763 164.36 18.5564 162.071 18.5564C159.765 18.5564 157.959 16.8609 157.959 14.4254C157.959 12.0054 159.765 10.2636 162.071 10.2636Z" fill="#50287D"/>
<path d="M170.636 8.87638V19.9437H172.1V15.5969H173.767C175.823 15.5969 177.271 14.2251 177.271 12.2521C177.271 10.2174 175.745 8.87638 173.751 8.87638H170.636ZM174 10.4332C175.044 10.4332 175.791 11.2347 175.791 12.2366C175.791 13.3002 175.013 14.0401 174 14.0401H172.1V10.4332H174Z" fill="#50287D"/>
<path d="M184.917 8.69141C181.927 8.69141 179.341 11.1577 179.341 14.4254C179.341 17.6624 181.911 20.1287 184.948 20.1287C187.892 20.1287 190.493 17.6778 190.493 14.41C190.493 11.1422 187.908 8.69141 184.917 8.69141ZM184.933 10.2636C187.223 10.2636 189.014 11.99 189.014 14.41C189.014 16.8763 187.223 18.5564 184.933 18.5564C182.628 18.5564 180.821 16.8609 180.821 14.4254C180.821 12.0054 182.628 10.2636 184.933 10.2636Z" fill="#50287D"/>
<path d="M193.498 8.87638V19.9437H196.878C198.872 19.9437 200.32 18.7876 200.32 16.7067C200.32 15.3503 199.682 14.4717 198.763 14.0401C199.37 13.5623 199.744 12.8995 199.744 11.9129C199.744 9.93995 198.358 8.87638 196.317 8.87638H193.498ZM197.158 15.0728C198.155 15.0728 198.841 15.8744 198.841 16.7376C198.841 17.6932 198.109 18.3869 197.174 18.3869H194.962V15.0728H197.158ZM196.676 10.4332C197.657 10.4332 198.28 11.0806 198.28 11.99C198.28 12.9303 197.61 13.516 196.676 13.516H194.962V10.4332H196.676Z" fill="#50287D"/>
<path d="M206.599 19.9437C208.593 19.9437 210.119 18.6027 210.119 16.568C210.119 14.595 208.671 13.2231 206.615 13.2231H204.948V8.87638H203.484V19.9437H206.599ZM204.948 18.3869V14.78H206.849C207.861 14.78 208.64 15.5198 208.64 16.5834C208.64 17.5853 207.892 18.3869 206.849 18.3869H204.948Z" fill="#50287D"/>
<path d="M212.968 19.9437H218.934V18.3869H214.432V15.0266H218.467V13.4698H214.432V10.4332H218.934V8.87638H212.968V19.9437Z" fill="#50287D"/>
</g>
<defs>
<clipPath id="clip0">
<rect width="221" height="24" fill="white"/>
</clipPath>
</defs>
</svg>
